<svg xmlns="http://www.w3.org/2000/svg" viewBox="0 0 180.19 186.8">
  <defs>
    <style>
      .cls-1 { fill: #2684ff }
      .cls-2 { fill: #5e6c84 }
      .cls-3 { isolation: isolate }
      .cls-4 { fill: #de350b }
      .cls-5 { fill: #0052cc }
      .cls-6{ clip-path: url(#clip-path) }
      .cls-7, .cls-10 { fill: #ebecf0 }
      .cls-7, .cls-8 { mix-blend-mode: multiply }
      .cls-8 { fill: #dfe1e5 }
      .cls-9 { fill: #fafbfc }
      .cls-11 { fill: none; stroke-miterlimit: 10; stroke-width: 3.06px; stroke: url(#linear-gradient) }
      .cls-12 { clip-path: url(#clip-path-2) }
      .cls-13 { fill: #253858 }
    </style>
    <clipPath id="clip-path">
      <path d="M163.58 8v178.8H0V8a8 8 0 0 1 8-8h17.22a8 8 0 0 1 8 8v15.22h32V8a8 8 0 0 1 8-8H90.4a8 8 0 0 1 8 8v15.22h32V8a8 8 0 0 1 8-8h17.22a8 8 0 0 1 7.96 8z" class="cls-1"/>
    </clipPath>
    <clipPath id="clip-path-2">
      <path d="M91.07 101a11.78 11.78 0 1 0-19.86 8.55 4 4 0 0 1 1.18 4.06l-2.1 7.27a3 3 0 0 0 2.88 3.83h12.24a3 3 0 0 0 2.88-3.83l-2.1-7.24a4.07 4.07 0 0 1 1.18-4.09 11.72 11.72 0 0 0 3.7-8.55z" class="cls-2"/>
    </clipPath>
    <linearGradient id="linear-gradient" x1="41.05" x2="117.53" y1="111.02" y2="111.02" gradientUnits="userSpaceOnUse">
      <stop offset="0" stop-color="#a5adba"/>
      <stop offset="1" stop-color="#c1c7d0"/>
    </linearGradient>
  </defs>
  <g class="cls-3">
    <path d="M24.61 0h.61a8 8 0 0 1 8 8v15.23H16.61V8a8 8 0 0 1 8-8zm66.15 0h.61a8 8 0 0 1 8 8v15.23H82.76V8a8 8 0 0 1 8-8zm66.16 0h.61a8 8 0 0 1 8 8v15.23h-16.61V8a8 8 0 0 1 8-8z" class="cls-4"/>
    <path d="M16.61 23.22h163.58V186.8H16.61zm8-23.22h17.22a8 8 0 0 1 8 8v15.22H16.61V8a8 8 0 0 1 8-8zm65.18 0H107a8 8 0 0 1 8 8v15.22H81.79V8a8 8 0 0 1 8-8zM155 0h17.22a8 8 0 0 1 8 8v15.22H147V8a8 8 0 0 1 8-8z" class="cls-5"/>
    <path d="M163.58 8v178.8H0V8a8 8 0 0 1 8-8h17.22a8 8 0 0 1 8 8v15.22h32V8a8 8 0 0 1 8-8H90.4a8 8 0 0 1 8 8v15.22h32V8a8 8 0 0 1 8-8h17.22a8 8 0 0 1 7.96 8z" class="cls-1"/>
    <path d="M132.61 157.54h33.22v15.6h-33.22zM18.3 56.79h33.22v15.6H18.3zm95.45 80.16h33.22v15.6h-33.22zM0 36.46h33.22v15.6H0zm0 121.65h33.22v15.6H0zM130.36 36.46h33.22v15.6h-33.22z" class="cls-6 cls-7"/>
    <path d="M39.92 71.59h70.75a9 9 0 0 1 9 9V116a44.37 44.37 0 0 1-44.37 44.37A44.37 44.37 0 0 1 30.92 116V80.59a9 9 0 0 1 9-9z" class="cls-8"/>
    <path d="M48.92 66.65h70.75a9 9 0 0 1 9 9V111a44.37 44.37 0 0 1-44.38 44.4A44.37 44.37 0 0 1 39.92 111V75.65a9 9 0 0 1 9-9z" class="cls-9"/>
    <path d="M43.92 66.65h70.75a9 9 0 0 1 9 9V111a44.37 44.37 0 0 1-44.38 44.4A44.37 44.37 0 0 1 34.92 111V75.65a9 9 0 0 1 9-9z" class="cls-10"/>
    <path d="M79.29 147.73A36.75 36.75 0 0 1 42.58 111V78a3.73 3.73 0 0 1 3.73-3.73h66A3.73 3.73 0 0 1 116 78v33a36.75 36.75 0 0 1-36.71 36.73z" class="cls-11"/>
    <path d="M91.07 101a11.78 11.78 0 1 0-19.86 8.55 4 4 0 0 1 1.18 4.06l-2.1 7.27a3 3 0 0 0 2.88 3.83h12.24a3 3 0 0 0 2.88-3.83l-2.1-7.24a4.07 4.07 0 0 1 1.18-4.09 11.72 11.72 0 0 0 3.7-8.55z" class="cls-2"/>
    <path d="M97.07 101a11.78 11.78 0 1 0-19.86 8.55 4 4 0 0 1 1.18 4.06l-3.21 11.1H95.4l-4-13.69A11.76 11.76 0 0 0 97.07 101z" class="cls-12 cls-13"/>
  </g>
</svg>