<?xml version="1.0" encoding="UTF-8" standalone="no"?>
<svg
   xmlns:dc="http://purl.org/dc/elements/1.1/"
   xmlns:cc="http://creativecommons.org/ns#"
   xmlns:rdf="http://www.w3.org/1999/02/22-rdf-syntax-ns#"
   xmlns:svg="http://www.w3.org/2000/svg"
   xmlns="http://www.w3.org/2000/svg"
   xmlns:sodipodi="http://sodipodi.sourceforge.net/DTD/sodipodi-0.dtd"
   xmlns:inkscape="http://www.inkscape.org/namespaces/inkscape"
   height="57.208164"
   width="376.18079"
   xml:space="preserve"
   viewBox="0 0 376.18078 57.208163"
   y="0px"
   x="0px"
   sodipodi:docname="logo-light.svg"
   inkscape:version="1.0beta2 (unknown)"
   id="svg6623"
   version="1.1"><metadata
   id="metadata33"><rdf:RDF><cc:Work
       rdf:about=""><dc:format>image/svg+xml</dc:format><dc:type
         rdf:resource="http://purl.org/dc/dcmitype/StillImage" /><dc:title>آسان پی</dc:title></cc:Work></rdf:RDF></metadata><defs
   id="defs31" />
<style
   id="style2"
   type="text/css">
	.st0{fill:#FF6600;}
</style>
<title
   id="title7198">آسان پی</title>
<sodipodi:namedview
   inkscape:document-rotation="0"
   units="px"
   showgrid="false"
   pagecolor="#ffffff"
   inkscape:zoom="1.979899"
   inkscape:window-y="0"
   inkscape:window-x="0"
   inkscape:window-width="2048"
   inkscape:window-maximized="1"
   inkscape:window-height="1090"
   inkscape:pageshadow="2"
   inkscape:pageopacity="0.0"
   inkscape:document-units="mm"
   inkscape:cy="125.66651"
   inkscape:cx="150.72438"
   inkscape:current-layer="layer1"
   id="base"
   fit-margin-top="0"
   fit-margin-right="0"
   fit-margin-left="0"
   fit-margin-bottom="0"
   borderopacity="1.0"
   bordercolor="#666666">
	</sodipodi:namedview>
<g
   transform="translate(-38.7,-28.3)"
   id="g28">
	<g
   inkscape:label="Layer 1"
   inkscape:groupmode="layer"
   transform="translate(684.25599,-53.751101)"
   id="layer1">
		<path
   style="fill:#0052cc;fill-opacity:1;stroke-width:0.509705"
   d="m -297.45071,138.5627 c -0.56067,-0.15291 -4.9951,-2.5995 -9.88826,-5.40287 -7.18683,-4.1286 -9.17468,-5.40287 -10.65283,-6.83004 -2.80337,-2.7524 -2.80337,-2.59949 -2.80337,-15.95375 V 99.11157 l 0.81553,-1.58008 c 1.47814,-3.007256 3.36405,-4.434432 12.64067,-9.786327 4.68928,-2.701434 8.9708,-5.046074 9.53147,-5.249956 1.32524,-0.458734 4.33249,-0.407764 5.70869,0.05097 0.61165,0.203882 2.65047,1.274261 4.58734,2.39561 17.68675,10.194094 16.71831,9.582444 17.48286,11.162531 0.61165,1.325231 0.81553,3.567932 0.3568,4.281512 -0.15291,0.25486 -0.50971,0.3568 -0.96844,0.25486 -0.66261,-0.15291 -9.58244,-5.148022 -17.58481,-9.78633 -4.28151,-2.497553 -6.01451,-3.058227 -8.05333,-2.599494 -1.93687,0.407764 -14.78143,7.849452 -16.41248,9.480504 -2.49755,2.54853 -2.44658,2.29367 -2.34464,13.09941 l 0.10194,9.53147 0.81553,1.17232 c 1.17232,1.68202 2.7524,2.80337 10.24506,7.08489 l 6.62616,3.82278 h 2.39561 2.39561 l 7.39072,-4.23055 c 8.81788,-5.09704 9.58244,-5.55578 9.58244,-5.91256 0,-0.15291 -1.17232,-0.91747 -2.5995,-1.78397 l -2.59949,-1.47814 -1.0194,0.96843 c -1.2233,1.17232 -10.39798,6.52422 -11.82515,6.93199 -2.14076,0.61164 -2.5995,0.40776 -10.44894,-4.12861 -5.60675,-3.26211 -6.06549,-3.77181 -6.06549,-6.67712 0,-2.95629 0.30582,-3.26211 7.39072,-7.33975 5.75966,-3.31308 6.16743,-3.51696 7.69653,-3.51696 1.47815,0 1.98786,0.20388 4.99511,1.88591 1.88591,1.01941 3.66987,2.08979 4.02667,2.34464 l 0.66261,0.40776 v -2.03882 c 0,-2.80338 -0.5097,-3.51696 -4.02666,-5.55577 -3.92473,-2.29368 -5.30093,-2.90533 -6.26937,-2.65047 -0.40777,0.10194 -2.49755,1.22329 -4.63831,2.44658 -7.44168,4.33249 -9.02177,5.14801 -9.42953,4.9951 -0.35679,-0.15291 -0.45874,-0.66261 -0.45874,-2.08978 0,-2.2427 0.45874,-3.36405 1.83494,-4.38346 1.78397,-1.32523 11.36641,-6.677136 12.28387,-6.881012 1.58009,-0.305821 2.80338,0.15291 7.5946,2.854345 6.16743,3.516967 6.83005,4.026667 7.84946,5.555777 0.81552,1.32524 0.81552,1.32524 0.81552,6.2184 v 4.89316 l 4.43443,2.59949 c 5.19899,3.05823 5.65772,3.6189 5.8616,6.42228 0.10194,1.93687 0.10194,1.98784 -1.01941,3.16016 -0.71358,0.76456 -4.07763,2.90532 -9.12371,5.81063 -11.46835,6.67714 -12.5897,7.23781 -14.93434,7.39072 -1.07038,0.15291 -2.39561,0.051 -2.95629,-0.10194 z m 7.39072,-19.62362 c 4.94413,-2.90532 4.8422,-2.70144 2.44658,-4.07764 -4.79122,-2.80337 -6.93198,-3.82278 -7.84945,-3.6189 -1.12135,0.20388 -8.76691,4.63831 -8.66497,4.9951 0.051,0.15292 1.8859,1.32524 4.07763,2.59949 4.94413,2.95629 5.09704,2.95629 9.99021,0.10195 z"
   class="st0"
   inkscape:connector-curvature="0"
   id="path6563" />
	</g>
	<g
   style="fill:#0052cc;fill-opacity:1"
   id="g26">
		<path
   inkscape:connector-curvature="0"
   style="fill:#0052cc;fill-opacity:1"
   id="path8"
   d="m 177.1,51.7 c 0,-4.2 2.1,-6.3 6.3,-6.3 4.2,0 6.3,2.1 6.3,6.3 0,4.2 -2.1,6.3 -6.3,6.3 -4.2,0.1 -6.3,-2 -6.3,-6.3 z"
   class="st0" />
		<path
   inkscape:connector-curvature="0"
   style="fill:#0052cc;fill-opacity:1"
   id="path10"
   d="m 104,79.2 c 0,-4.2 2.1,-6.3 6.3,-6.3 4.2,0 6.3,2.1 6.3,6.3 0,4.2 -2.1,6.3 -6.3,6.3 -4.2,0 -6.3,-2.1 -6.3,-6.3 z"
   class="st0" />
		<path
   inkscape:connector-curvature="0"
   style="fill:#0052cc;fill-opacity:1"
   id="path12"
   d="m 118.2,79.2 c 0,-4.2 2.1,-6.3 6.3,-6.3 4.2,0 6.3,2.1 6.3,6.3 0,4.2 -2.1,6.3 -6.3,6.3 -4.2,0 -6.3,-2.1 -6.3,-6.3 z"
   class="st0" />
		<path
   inkscape:connector-curvature="0"
   style="fill:#0052cc;fill-opacity:1"
   id="path14"
   d="m 132.4,79.2 c 0,-4.2 2.1,-6.3 6.3,-6.3 4.2,0 6.3,2.1 6.3,6.3 0,4.2 -2.1,6.3 -6.3,6.3 -4.2,0 -6.3,-2.1 -6.3,-6.3 z"
   class="st0" />
		<path
   inkscape:connector-curvature="0"
   style="fill:#0052cc;fill-opacity:1"
   id="path16"
   d="m 216,45.3 v 11.8 c 0,9.5 -2.5,16.6 -7.5,21.3 -4.9,4.6 -12.1,7 -21.7,7.1 -0.2,0 -0.5,0 -0.8,0 h -5.1 c -0.3,0 -0.5,0 -0.8,0 -9.6,-0.1 -16.9,-2.5 -21.7,-7.1 -5,-4.7 -7.5,-11.8 -7.5,-21.3 V 45.3 h 12.7 v 11.8 c 0,2.3 0.2,4.5 0.7,6.4 0.5,1.9 1.3,3.6 2.6,5 1.3,1.4 3,2.4 5.3,3.2 2.3,0.7 5.2,1.1 8.8,1.1 h 5.1 c 3.6,0 6.5,-0.4 8.8,-1.1 2.3,-0.7 4,-1.8 5.3,-3.2 1.3,-1.4 2.1,-3 2.6,-5 0.5,-1.9 0.7,-4.1 0.7,-6.4 V 45.3 Z"
   class="st0" />
		<path
   inkscape:connector-curvature="0"
   style="fill:#0052cc;fill-opacity:1"
   id="path18"
   d="m 346.9,38.3 h -15.1 c -2,0 -3.7,0.1 -5.1,0.2 -1.4,0.1 -2.5,0.4 -3.5,0.9 -1,0.5 -1.8,1.2 -2.4,2.1 -0.6,0.9 -1.2,2.2 -1.7,3.8 l -9.5,-2.8 c 0.9,-3.1 2.1,-5.6 3.6,-7.5 1.5,-1.9 3.4,-3.4 5.5,-4.5 1.8,-0.9 3.8,-1.5 6,-1.8 2.1,-0.3 4.5,-0.4 7.1,-0.4 h 15.1 z"
   class="st0" />
		<rect
   style="fill:#0052cc;fill-opacity:1"
   id="rect20"
   height="40.5"
   width="12.7"
   class="st0"
   y="45"
   x="326.60001" />
		<path
   inkscape:connector-curvature="0"
   style="fill:#0052cc;fill-opacity:1"
   id="path22"
   d="m 145.1,45.4 v 12.7 h -41.3 c -0.2,9 -2.7,15.8 -7.5,20.3 -4.9,4.6 -12.1,7 -21.7,7.1 -0.2,0 -0.5,0 -0.8,0 h -5.1 c -0.3,0 -0.5,0 -0.8,0 C 58.3,85.4 51,83 46.2,78.4 41.2,73.7 38.7,66.6 38.7,57.1 V 45.3 h 12.7 v 11.8 c 0,2.3 0.2,4.5 0.7,6.4 0.5,1.9 1.3,3.6 2.6,5 1.3,1.4 3,2.4 5.3,3.2 2.3,0.7 5.2,1.1 8.8,1.1 h 5.1 c 3.6,0 6.5,-0.4 8.8,-1.1 2.3,-0.7 4,-1.8 5.3,-3.2 1.3,-1.4 2.1,-3 2.6,-5 0.4,-1.7 0.6,-3.5 0.7,-5.4 h -19 V 45.4 Z"
   class="st0" />
		<path
   inkscape:connector-curvature="0"
   style="fill:#0052cc;fill-opacity:1"
   id="path24"
   d="m 320.5,72.8 v 12.7 h -73.6 c -3.6,0 -6.7,0.1 -9.4,-0.4 -2.7,-0.5 -4.9,-1.1 -6.8,-2 -1.8,-0.9 -3.3,-2 -4.4,-3.4 -1.1,-1.4 -1.9,-3 -2.5,-4.9 -0.6,-1.9 -1,-4 -1.1,-6.4 -0.2,-2.4 -0.3,-5 -0.3,-7.8 V 45.3 h 12.7 v 15.3 c 0,2.7 0.1,4.9 0.3,6.5 0.2,1.6 0.7,2.9 1.5,3.8 0.8,0.9 2,1.5 3.6,1.8 1.6,0.3 3.8,0.1 6.7,0.1 v 0 z"
   class="st0" />
	</g>
</g>
</svg>
