<?xml version="1.0" encoding="UTF-8" standalone="no"?>
<svg
   xmlns:dc="http://purl.org/dc/elements/1.1/"
   xmlns:cc="http://creativecommons.org/ns#"
   xmlns:rdf="http://www.w3.org/1999/02/22-rdf-syntax-ns#"
   xmlns:svg="http://www.w3.org/2000/svg"
   xmlns="http://www.w3.org/2000/svg"
   xmlns:sodipodi="http://sodipodi.sourceforge.net/DTD/sodipodi-0.dtd"
   xmlns:inkscape="http://www.inkscape.org/namespaces/inkscape"
   height="57.20816"
   width="336.93689"
   xml:space="preserve"
   viewBox="0 0 336.93691 57.208162"
   y="0px"
   x="0px"
   sodipodi:docname="logo-light.svg"
   inkscape:version="1.0beta2 (unknown)"
   id="svg6623"
   version="1.1"><metadata
   id="metadata33"><rdf:RDF><cc:Work
       rdf:about=""><dc:format>image/svg+xml</dc:format><dc:type
         rdf:resource="http://purl.org/dc/dcmitype/StillImage" /><dc:title>آسان پی</dc:title></cc:Work></rdf:RDF></metadata><defs
   id="defs31"><clipPath
     id="clipPath42"
     clipPathUnits="userSpaceOnUse"><path
       inkscape:connector-curvature="0"
       id="path40"
       d="M 0,500 H 500 V 0 H 0 Z" /></clipPath></defs>
<style
   id="style2"
   type="text/css">
	.st0{fill:#FF6600;}
</style>
<title
   id="title7198">آسان پی</title>
<sodipodi:namedview
   inkscape:document-rotation="0"
   units="px"
   showgrid="false"
   pagecolor="#ffffff"
   inkscape:zoom="1.389271"
   inkscape:window-y="0"
   inkscape:window-x="0"
   inkscape:window-width="2048"
   inkscape:window-maximized="1"
   inkscape:window-height="1090"
   inkscape:pageshadow="2"
   inkscape:pageopacity="0.0"
   inkscape:document-units="mm"
   inkscape:cy="9.6126154"
   inkscape:cx="67.271757"
   inkscape:current-layer="g28"
   id="base"
   fit-margin-top="0"
   fit-margin-right="0"
   fit-margin-left="0"
   fit-margin-bottom="0"
   borderopacity="1.0"
   bordercolor="#666666">
	</sodipodi:namedview>
<g
   transform="translate(-38.7,-28.3)"
   id="g28">
	<g
   inkscape:label="Layer 1"
   inkscape:groupmode="layer"
   transform="translate(684.25599,-53.751101)"
   id="layer1">
		
	</g>
	<g
   style="fill:#0052cc;fill-opacity:1"
   id="g26">
		<path
   inkscape:connector-curvature="0"
   style="fill:#0052cc;fill-opacity:1"
   id="path8"
   d="m 177.1,51.7 c 0,-4.2 2.1,-6.3 6.3,-6.3 4.2,0 6.3,2.1 6.3,6.3 0,4.2 -2.1,6.3 -6.3,6.3 -4.2,0.1 -6.3,-2 -6.3,-6.3 z"
   class="st0" />
		<path
   inkscape:connector-curvature="0"
   style="fill:#0052cc;fill-opacity:1"
   id="path10"
   d="m 104,79.2 c 0,-4.2 2.1,-6.3 6.3,-6.3 4.2,0 6.3,2.1 6.3,6.3 0,4.2 -2.1,6.3 -6.3,6.3 -4.2,0 -6.3,-2.1 -6.3,-6.3 z"
   class="st0" />
		<path
   inkscape:connector-curvature="0"
   style="fill:#0052cc;fill-opacity:1"
   id="path12"
   d="m 118.2,79.2 c 0,-4.2 2.1,-6.3 6.3,-6.3 4.2,0 6.3,2.1 6.3,6.3 0,4.2 -2.1,6.3 -6.3,6.3 -4.2,0 -6.3,-2.1 -6.3,-6.3 z"
   class="st0" />
		<path
   inkscape:connector-curvature="0"
   style="fill:#0052cc;fill-opacity:1"
   id="path14"
   d="m 132.4,79.2 c 0,-4.2 2.1,-6.3 6.3,-6.3 4.2,0 6.3,2.1 6.3,6.3 0,4.2 -2.1,6.3 -6.3,6.3 -4.2,0 -6.3,-2.1 -6.3,-6.3 z"
   class="st0" />
		<path
   inkscape:connector-curvature="0"
   style="fill:#0052cc;fill-opacity:1"
   id="path16"
   d="m 216,45.3 v 11.8 c 0,9.5 -2.5,16.6 -7.5,21.3 -4.9,4.6 -12.1,7 -21.7,7.1 -0.2,0 -0.5,0 -0.8,0 h -5.1 c -0.3,0 -0.5,0 -0.8,0 -9.6,-0.1 -16.9,-2.5 -21.7,-7.1 -5,-4.7 -7.5,-11.8 -7.5,-21.3 V 45.3 h 12.7 v 11.8 c 0,2.3 0.2,4.5 0.7,6.4 0.5,1.9 1.3,3.6 2.6,5 1.3,1.4 3,2.4 5.3,3.2 2.3,0.7 5.2,1.1 8.8,1.1 h 5.1 c 3.6,0 6.5,-0.4 8.8,-1.1 2.3,-0.7 4,-1.8 5.3,-3.2 1.3,-1.4 2.1,-3 2.6,-5 0.5,-1.9 0.7,-4.1 0.7,-6.4 V 45.3 Z"
   class="st0" />
		<path
   inkscape:connector-curvature="0"
   style="fill:#0052cc;fill-opacity:1"
   id="path18"
   d="m 346.9,38.3 h -15.1 c -2,0 -3.7,0.1 -5.1,0.2 -1.4,0.1 -2.5,0.4 -3.5,0.9 -1,0.5 -1.8,1.2 -2.4,2.1 -0.6,0.9 -1.2,2.2 -1.7,3.8 l -9.5,-2.8 c 0.9,-3.1 2.1,-5.6 3.6,-7.5 1.5,-1.9 3.4,-3.4 5.5,-4.5 1.8,-0.9 3.8,-1.5 6,-1.8 2.1,-0.3 4.5,-0.4 7.1,-0.4 h 15.1 z"
   class="st0" />
		<rect
   style="fill:#0052cc;fill-opacity:1"
   id="rect20"
   height="40.5"
   width="12.7"
   class="st0"
   y="45"
   x="326.60001" />
		<path
   inkscape:connector-curvature="0"
   style="fill:#0052cc;fill-opacity:1"
   id="path22"
   d="m 145.1,45.4 v 12.7 h -41.3 c -0.2,9 -2.7,15.8 -7.5,20.3 -4.9,4.6 -12.1,7 -21.7,7.1 -0.2,0 -0.5,0 -0.8,0 h -5.1 c -0.3,0 -0.5,0 -0.8,0 C 58.3,85.4 51,83 46.2,78.4 41.2,73.7 38.7,66.6 38.7,57.1 V 45.3 h 12.7 v 11.8 c 0,2.3 0.2,4.5 0.7,6.4 0.5,1.9 1.3,3.6 2.6,5 1.3,1.4 3,2.4 5.3,3.2 2.3,0.7 5.2,1.1 8.8,1.1 h 5.1 c 3.6,0 6.5,-0.4 8.8,-1.1 2.3,-0.7 4,-1.8 5.3,-3.2 1.3,-1.4 2.1,-3 2.6,-5 0.4,-1.7 0.6,-3.5 0.7,-5.4 h -19 V 45.4 Z"
   class="st0" />
		<path
   inkscape:connector-curvature="0"
   style="fill:#0052cc;fill-opacity:1"
   id="path24"
   d="m 320.5,72.8 v 12.7 h -73.6 c -3.6,0 -6.7,0.1 -9.4,-0.4 -2.7,-0.5 -4.9,-1.1 -6.8,-2 -1.8,-0.9 -3.3,-2 -4.4,-3.4 -1.1,-1.4 -1.9,-3 -2.5,-4.9 -0.6,-1.9 -1,-4 -1.1,-6.4 -0.2,-2.4 -0.3,-5 -0.3,-7.8 V 45.3 h 12.7 v 15.3 c 0,2.7 0.1,4.9 0.3,6.5 0.2,1.6 0.7,2.9 1.5,3.8 0.8,0.9 2,1.5 3.6,1.8 1.6,0.3 3.8,0.1 6.7,0.1 v 0 z"
   class="st0" />
	</g>
<path
   style="fill:#f52a31;stroke-width:0.217361"
   d="m 326.09105,84.836062 c -0.25242,-0.414025 -0.44602,-1.107903 -0.44655,-1.600383 -3.7e-4,-0.478195 -0.20596,-1.407414 -0.45657,-2.064932 -0.76798,-2.014976 -2.1064,-7.60058 -2.34379,-9.781257 -0.51673,-4.746885 0.72518,-8.372296 3.98721,-11.639585 3.8604,-3.86663 6.65497,-5.16864 20.43989,-9.52314 11.30296,-3.57046 14.41552,-4.83336 18.68749,-7.58227 2.09912,-1.35073 3.07782,-0.83437 2.08969,1.10253 -0.84262,1.65166 -3.48022,3.96938 -7.00537,6.15574 -3.51488,2.18001 -11.21713,5.7543 -15.14439,7.0279 -0.63538,0.20605 -1.12239,0.40748 -1.08226,0.44761 0.0401,0.0401 1.89062,-0.3036 4.11218,-0.76386 4.67982,-0.96957 9.38189,-2.28722 12.453,-3.48968 1.1855,-0.46418 2.23699,-0.79357 2.33663,-0.73199 0.2459,0.15198 0.22883,1.23684 -0.0302,1.91807 -0.53706,1.41258 -3.28346,3.60532 -6.0832,4.85684 -0.66243,0.29611 -2.72791,1.0551 -4.58996,1.68662 -4.37445,1.48362 -10.09833,3.75382 -10.70408,4.245437 l -0.47358,0.38435 0.65208,0.1369 c 1.97126,0.41385 2.34943,0.577957 2.03972,0.885132 -0.16545,0.164107 -1.32786,0.654466 -2.58312,1.089689 -4.69488,1.627811 -8.2889,3.804253 -10.94568,6.628423 -2.37665,2.526393 -3.10629,4.080339 -3.74569,7.977338 -0.28582,1.742 -0.56426,3.211865 -0.61876,3.266364 -0.0545,0.0545 -0.29962,-0.22983 -0.54471,-0.631846 z m 40.3091,-31.484057 c -0.24887,-0.7841 0.36108,-1.59855 1.67379,-2.23496 0.6821,-0.33068 1.53796,-0.6608 1.90191,-0.73359 0.57305,-0.11461 0.66173,-0.0698 0.66173,0.3344 0,0.54199 -1.54937,2.30412 -2.42324,2.75602 -0.8665,0.44808 -1.65,0.39545 -1.81419,-0.12187 z m 3.58535,-12.26566 c 0,-0.85971 1.38599,-2.76564 2.86787,-3.94372 1.50135,-1.19357 2.78352,-0.88059 2.78352,0.67945 0,1.48771 -2.23589,3.1625 -4.66684,3.4957 -0.8318,0.11401 -0.98455,0.0781 -0.98455,-0.23143 z"
   id="path1571"
   inkscape:connector-curvature="0" /></g>
</svg>
