<?xml version="1.0" encoding="UTF-8" standalone="no"?>
<svg
   xmlns:dc="http://purl.org/dc/elements/1.1/"
   xmlns:cc="http://creativecommons.org/ns#"
   xmlns:rdf="http://www.w3.org/1999/02/22-rdf-syntax-ns#"
   xmlns:svg="http://www.w3.org/2000/svg"
   xmlns="http://www.w3.org/2000/svg"
   xmlns:sodipodi="http://sodipodi.sourceforge.net/DTD/sodipodi-0.dtd"
   xmlns:inkscape="http://www.inkscape.org/namespaces/inkscape"
   version="1.1"
   id="svg6623"
   inkscape:version="1.0beta2 (unknown)"
   sodipodi:docname="logo-grey.svg"
   x="0px"
   y="0px"
   viewBox="0 0 398.47163 57.378026"
   xml:space="preserve"
   width="398.47162"
   height="57.378025"><metadata
   id="metadata33"><rdf:RDF><cc:Work
       rdf:about=""><dc:format>image/svg+xml</dc:format><dc:type
         rdf:resource="http://purl.org/dc/dcmitype/StillImage" /><dc:title>آسان پی</dc:title></cc:Work></rdf:RDF></metadata><defs
   id="defs31"><clipPath
     clipPathUnits="userSpaceOnUse"
     id="clipPath42"><path
       d="M 0,500 H 500 V 0 H 0 Z"
       id="path40"
       inkscape:connector-curvature="0" /></clipPath></defs>
<style
   type="text/css"
   id="style2">
	.st0{fill:#FF6600;}
</style>
<title
   id="title7198">آسان پی</title>
<sodipodi:namedview
   bordercolor="#666666"
   borderopacity="1.0"
   fit-margin-bottom="0"
   fit-margin-left="0"
   fit-margin-right="0"
   fit-margin-top="0"
   id="base"
   inkscape:current-layer="g2169"
   inkscape:cx="187.54979"
   inkscape:cy="141.8403"
   inkscape:document-units="mm"
   inkscape:pageopacity="0.0"
   inkscape:pageshadow="2"
   inkscape:window-height="1090"
   inkscape:window-maximized="1"
   inkscape:window-width="2048"
   inkscape:window-x="0"
   inkscape:window-y="0"
   inkscape:zoom="0.84809996"
   pagecolor="#ffffff"
   showgrid="false"
   units="px"
   inkscape:document-rotation="0">
	</sodipodi:namedview>
<g
   id="g28"
   transform="translate(-38.7,-28.3)">
	<g
   id="layer1"
   transform="translate(684.25599,-53.751101)"
   inkscape:groupmode="layer"
   inkscape:label="Layer 1">
		
	</g>
	<g
   id="g26"
   style="fill:#5e6c84;fill-opacity:1">
		<path
   class="st0"
   d="m 177.1,51.7 c 0,-4.2 2.1,-6.3 6.3,-6.3 4.2,0 6.3,2.1 6.3,6.3 0,4.2 -2.1,6.3 -6.3,6.3 -4.2,0.1 -6.3,-2 -6.3,-6.3 z"
   id="path8"
   style="fill:#5e6c84;fill-opacity:1"
   inkscape:connector-curvature="0" />
		<path
   class="st0"
   d="m 104,79.2 c 0,-4.2 2.1,-6.3 6.3,-6.3 4.2,0 6.3,2.1 6.3,6.3 0,4.2 -2.1,6.3 -6.3,6.3 -4.2,0 -6.3,-2.1 -6.3,-6.3 z"
   id="path10"
   style="fill:#5e6c84;fill-opacity:1"
   inkscape:connector-curvature="0" />
		<path
   class="st0"
   d="m 118.2,79.2 c 0,-4.2 2.1,-6.3 6.3,-6.3 4.2,0 6.3,2.1 6.3,6.3 0,4.2 -2.1,6.3 -6.3,6.3 -4.2,0 -6.3,-2.1 -6.3,-6.3 z"
   id="path12"
   style="fill:#5e6c84;fill-opacity:1"
   inkscape:connector-curvature="0" />
		<path
   class="st0"
   d="m 132.4,79.2 c 0,-4.2 2.1,-6.3 6.3,-6.3 4.2,0 6.3,2.1 6.3,6.3 0,4.2 -2.1,6.3 -6.3,6.3 -4.2,0 -6.3,-2.1 -6.3,-6.3 z"
   id="path14"
   style="fill:#5e6c84;fill-opacity:1"
   inkscape:connector-curvature="0" />
		<path
   class="st0"
   d="m 216,45.3 v 11.8 c 0,9.5 -2.5,16.6 -7.5,21.3 -4.9,4.6 -12.1,7 -21.7,7.1 -0.2,0 -0.5,0 -0.8,0 h -5.1 c -0.3,0 -0.5,0 -0.8,0 -9.6,-0.1 -16.9,-2.5 -21.7,-7.1 -5,-4.7 -7.5,-11.8 -7.5,-21.3 V 45.3 h 12.7 v 11.8 c 0,2.3 0.2,4.5 0.7,6.4 0.5,1.9 1.3,3.6 2.6,5 1.3,1.4 3,2.4 5.3,3.2 2.3,0.7 5.2,1.1 8.8,1.1 h 5.1 c 3.6,0 6.5,-0.4 8.8,-1.1 2.3,-0.7 4,-1.8 5.3,-3.2 1.3,-1.4 2.1,-3 2.6,-5 0.5,-1.9 0.7,-4.1 0.7,-6.4 V 45.3 Z"
   id="path16"
   style="fill:#5e6c84;fill-opacity:1"
   inkscape:connector-curvature="0" />
		<path
   class="st0"
   d="m 346.9,38.3 h -15.1 c -2,0 -3.7,0.1 -5.1,0.2 -1.4,0.1 -2.5,0.4 -3.5,0.9 -1,0.5 -1.8,1.2 -2.4,2.1 -0.6,0.9 -1.2,2.2 -1.7,3.8 l -9.5,-2.8 c 0.9,-3.1 2.1,-5.6 3.6,-7.5 1.5,-1.9 3.4,-3.4 5.5,-4.5 1.8,-0.9 3.8,-1.5 6,-1.8 2.1,-0.3 4.5,-0.4 7.1,-0.4 h 15.1 z"
   id="path18"
   style="fill:#5e6c84;fill-opacity:1"
   inkscape:connector-curvature="0" />
		<rect
   x="326.60001"
   y="45"
   class="st0"
   width="12.7"
   height="40.5"
   id="rect20"
   style="fill:#5e6c84;fill-opacity:1" />
		<path
   class="st0"
   d="m 145.1,45.4 v 12.7 h -41.3 c -0.2,9 -2.7,15.8 -7.5,20.3 -4.9,4.6 -12.1,7 -21.7,7.1 -0.2,0 -0.5,0 -0.8,0 h -5.1 c -0.3,0 -0.5,0 -0.8,0 C 58.3,85.4 51,83 46.2,78.4 41.2,73.7 38.7,66.6 38.7,57.1 V 45.3 h 12.7 v 11.8 c 0,2.3 0.2,4.5 0.7,6.4 0.5,1.9 1.3,3.6 2.6,5 1.3,1.4 3,2.4 5.3,3.2 2.3,0.7 5.2,1.1 8.8,1.1 h 5.1 c 3.6,0 6.5,-0.4 8.8,-1.1 2.3,-0.7 4,-1.8 5.3,-3.2 1.3,-1.4 2.1,-3 2.6,-5 0.4,-1.7 0.6,-3.5 0.7,-5.4 h -19 V 45.4 Z"
   id="path22"
   style="fill:#5e6c84;fill-opacity:1"
   inkscape:connector-curvature="0" />
		<path
   class="st0"
   d="m 320.5,72.8 v 12.7 h -73.6 c -3.6,0 -6.7,0.1 -9.4,-0.4 -2.7,-0.5 -4.9,-1.1 -6.8,-2 -1.8,-0.9 -3.3,-2 -4.4,-3.4 -1.1,-1.4 -1.9,-3 -2.5,-4.9 -0.6,-1.9 -1,-4 -1.1,-6.4 -0.2,-2.4 -0.3,-5 -0.3,-7.8 V 45.3 h 12.7 v 15.3 c 0,2.7 0.1,4.9 0.3,6.5 0.2,1.6 0.7,2.9 1.5,3.8 0.8,0.9 2,1.5 3.6,1.8 1.6,0.3 3.8,0.1 6.7,0.1 v 0 z"
   id="path24"
   style="fill:#5e6c84;fill-opacity:1"
   inkscape:connector-curvature="0" />
	</g>
<g
   transform="matrix(0.5819896,0,0,0.5819896,351.61915,25.151106)"
   id="g2169"><path
     inkscape:connector-curvature="0"
     id="path2173"
     d="M 56,84.5 C 56,69.611111 56.22381,67 57.5,67 58.77619,67 59,69.611111 59,84.5 59,99.388889 58.77619,102 57.5,102 56.22381,102 56,99.388889 56,84.5 Z m 46,0.07332 C 102,67.598311 102.0689,67 104.02361,67 c 1.96381,0 2.01553,0.509478 1.75,17.237194 -0.24595,15.494593 -0.45053,17.271176 -2.02361,17.573326 -1.61303,0.30982 -1.75,-1.03931 -1.75,-17.237196 z M 52,63.146622 c 0,-0.980121 9.674382,-0.805573 10.672511,0.192556 C 63.035963,63.70263 60.783333,64 57.666667,64 54.55,64 52,63.61598 52,63.146622 Z M 97.999543,63.25 C 97.998994,62.349967 108.78887,62.455539 109.69779,63.364459 110.04734,63.714007 107.55833,64 104.16667,64 100.775,64 97.999794,63.6625 97.999543,63.25 Z M 56.218265,48.331596 C 56.417168,40.093762 56.867506,36.5412 57.75,36.248262 58.703927,35.931613 59,38.695371 59,47.916667 59,58.102007 58.759402,60 57.468265,60 c -1.304229,0 -1.48989,-1.733089 -1.25,-11.668404 z M 102,48.606989 c 0,-8.851592 0.31279,-11.513042 1.40223,-11.931099 0.77123,-0.295948 1.67123,-0.269093 2,0.05968 C 105.73101,37.064339 106,42.433333 106,48.666667 106,59.333333 105.88235,60 104,60 c -1.88297,0 -2,-0.666667 -2,-11.393011 z M 43,48 c 0,-0.55 2.25,-1 5,-1 2.75,0 5,0.45 5,1 0,0.55 -2.25,1 -5,1 -2.75,0 -5,-0.45 -5,-1 z m 19,0 c 0,-0.631579 7,-1 19,-1 12,0 19,0.368421 19,1 0,0.631579 -7,1 -19,1 -12,0 -19,-0.368421 -19,-1 z m 46,0 c 0,-0.571429 3,-1 7,-1 4,0 7,0.428571 7,1 0,0.571429 -3,1 -7,1 -4,0 -7,-0.428571 -7,-1 z M 43,31.5 V 29 h 39 39 V 31.5 34 H 82 43 Z m -1.183578,-7.25 c -0.261,-2.268332 -0.797996,-2.743103 -3.065883,-2.710621 -1.827161,0.02617 -2.947994,-0.586143 -3.341306,-1.825361 -0.325515,-1.025606 -0.421621,-2.034964 -0.213568,-2.243016 0.208052,-0.208052 3.96164,0.307114 8.341306,1.144814 4.978134,0.952169 16.771868,1.72263 31.463029,2.055416 22.607738,0.512114 31.76394,-0.0908 50.75,-3.34174 2.81705,-0.482357 3.25,-0.274937 3.25,1.557009 C 129,20.568167 128.38704,21 126,21 c -2.66667,0 -3,0.333333 -3,3 v 3 H 82.566422 42.132845 Z M 57.5,17.91962 C 49.804784,17.136296 39.406071,15.441899 35.75,14.37561 34.7875,14.094898 34,13.291077 34,12.58934 c 0,-1.032143 1.289501,-1.02756 6.75,0.02399 3.7125,0.714932 14.471906,1.856311 23.90979,2.536399 18.63476,1.342809 43.36934,0.205185 58.27223,-2.68013 4.08761,-0.791393 7.65761,-1.213305 7.93333,-0.937582 3.28822,3.288216 -27.37086,7.580721 -52.36535,7.331548 -7.15,-0.07128 -16.6,-0.496055 -21,-0.943947 z"
     style="fill:#b3b3b3" /><path
     inkscape:connector-curvature="0"
     id="path2171"
     d="m 15,103 c 0,-0.63158 7,-1 19,-1 H 53 V 96 90 H 47.654988 C 43.579967,90 41.879919,89.524794 40.5,88 38.90198,86.234208 37.420033,86 27.845012,86 15.423378,86 13,84.800961 13,78.654988 13,72.607674 14.716538,72 31.798803,72 h 15.141322 l 2.217996,3 c 1.219898,1.65 2.58337,3 3.029937,3 C 52.634626,78 53,75.525 53,72.5 53,67.666667 52.757576,67 51,67 c -1.619048,0 -2,-0.666667 -2,-3.5 0,-2.833333 0.380952,-3.5 2,-3.5 1.666667,0 2,-0.666667 2,-4 V 52 H 46.5 40 V 48 44 H 46.5 53 V 40.5 37 H 46.616497 40.232994 L 39.536903,30.5 C 38.895871,24.514136 38.652412,24 36.45895,24 33.969112,24 33.997867,24.06455 31.198479,12.190586 l -1.01598,-4.309413 2.993576,0.6574995 C 45.757427,11.302001 54.173291,12.165034 73.563157,12.6803 97.229804,13.309217 113.26763,12.214509 126.47042,9.0689606 130.61169,8.0823079 134,7.5403799 134,7.8646763 134,8.1889726 133.24836,11.952087 132.3297,16.227153 130.73781,23.635121 130.5303,24 127.90929,24 c -2.64668,0 -2.77628,0.244441 -3.44619,6.5 L 123.76701,37 H 115.8835 108 v 3.5 3.5 h 8 8 v 4 4 h -8 -8 v 4 c 0,3.333333 0.33333,4 2,4 1.61905,0 2,0.666667 2,3.5 0,2.833333 -0.38095,3.5 -2,3.5 -1.55556,0 -2,0.666667 -2,3 0,2.928745 0.11741,3 4.9433,3 3.97464,0 5.24833,0.435506 6.5,2.222506 C 121.44663,78.082663 121.40751,78.59249 119,81 c -1.40741,1.407407 -3.33333,2 -6.5,2 H 108 v 9.5 9.5 h 19.5 c 12.33333,0 19.5,0.36752 19.5,1 0,0.65657 -22.66667,1 -66,1 -43.333333,0 -66,-0.34343 -66,-1 z M 59,84.5 C 59,69.611111 58.77619,67 57.5,67 56.22381,67 56,69.611111 56,84.5 56,99.388889 56.22381,102 57.5,102 58.77619,102 59,99.388889 59,84.5 Z m 41,8 V 83 h -5.5 c -4.222222,0 -5.5,0.348485 -5.5,1.5 0,0.825 -0.9,2.4 -2,3.5 -1.768116,1.768116 -3.333333,2 -13.5,2 H 62 v 6 6 h 19 19 z m 5.77361,-8.262806 C 106.03914,67.509478 105.98742,67 104.02361,67 102.0689,67 102,67.598311 102,84.573324 c 0,16.197886 0.13697,17.547016 1.75,17.237196 1.57308,-0.30215 1.77766,-2.078733 2.02361,-17.573326 z M 53,84 C 53,80.4 52.75,80 50.5,80 49,80 48,79.428571 48,78.571429 c 0,-0.785715 -0.707143,-2.135715 -1.571429,-3 C 45.156863,74.29972 42.309524,74 31.5,74 17.464054,74 15,74.727483 15,78.871429 15,82.395 17.080865,83 29.2,83 35.794872,83 41,83.409605 41,83.928571 41,86.185949 44.373498,88 48.571429,88 H 53 Z m 31.172299,2.907788 c 1.590466,-0.851191 1.912483,-1.733878 1.459259,-4 L 85.05,80 h 7.544551 c 7.251994,0 7.532159,-0.08725 7.225,-2.25 C 99.508698,75.561245 99.136294,75.492384 86.138373,75.220197 72.588202,74.936447 69.525594,75.600143 70.66643,78.573113 71.09184,79.681715 70.186332,80 66.606989,80 H 62 v 4 4 h 10.065741 c 5.536158,0 10.984109,-0.491495 12.106558,-1.092212 z M 117.6771,78.399075 C 118.49457,76.268784 116.33172,75.034022 111.75,75.015313 108.41258,75.001685 108,75.275056 108,77.5 c 0,2.298862 0.36457,2.5 4.53138,2.5 3.23237,0 4.7075,-0.458938 5.14572,-1.600925 z M 68.408043,75.5 C 70.03462,73.01753 70.151126,73 85.023053,73 H 100 v -3 c 0,-2.333333 -0.444444,-3 -2,-3 -1.619048,0 -2,-0.666667 -2,-3.5 0,-2.833333 0.380952,-3.5 2,-3.5 1.666667,0 2,-0.666667 2,-4 V 52 H 81 62 v 4 c 0,3.333333 0.333333,4 2,4 1.619048,0 2,0.666667 2,3.5 0,2.833333 -0.380952,3.5 -2,3.5 -1.757576,0 -2,0.666667 -2,5.5 0,5.129274 0.16076,5.5 2.38499,5.5 1.440506,0 3.033682,-0.990029 4.023053,-2.5 z M 62.672511,63.339178 C 61.674382,62.341049 52,62.166501 52,63.146622 52,63.61598 54.55,64 57.666667,64 c 3.116666,0 5.369296,-0.29737 5.005844,-0.660822 z m 47.025279,0.02528 C 108.78887,62.455539 97.998994,62.349967 97.999543,63.25 97.999794,63.6625 100.775,64 104.16667,64 c 3.39166,0 5.88067,-0.285993 5.53112,-0.635542 z M 59,47.916667 C 59,38.695371 58.703927,35.931613 57.75,36.248262 56.867506,36.5412 56.417168,40.093762 56.218265,48.331596 55.978375,58.266911 56.164036,60 57.468265,60 58.759402,60 59,58.102007 59,47.916667 Z m 47,0.75 c 0,-6.233334 -0.26899,-11.602328 -0.59777,-11.931099 -0.32877,-0.328771 -1.22877,-0.355626 -2,-0.05968 C 102.31279,37.093947 102,39.755397 102,48.606989 102,59.333333 102.11703,60 104,60 c 1.88235,0 2,-0.666667 2,-11.333333 z M 53,48 c 0,-0.55 -2.25,-1 -5,-1 -2.75,0 -5,0.45 -5,1 0,0.55 2.25,1 5,1 2.75,0 5,-0.45 5,-1 z m 47,0 c 0,-0.631579 -7,-1 -19,-1 -12,0 -19,0.368421 -19,1 0,0.631579 7,1 19,1 12,0 19,-0.368421 19,-1 z m 22,0 c 0,-0.571429 -3,-1 -7,-1 -4,0 -7,0.428571 -7,1 0,0.571429 3,1 7,1 4,0 7,-0.428571 7,-1 z M 100,40.5 V 37 H 81 62 v 3.5 3.5 h 19 19 z m 21,-9 V 29 H 82 43 v 2.5 2.5 h 39 39 z m 2,-7.5 c 0,-2.666667 0.33333,-3 3,-3 2.38704,0 3,-0.431833 3,-2.113499 0,-1.831946 -0.43295,-2.039366 -3.25,-1.557009 -18.98606,3.250944 -28.142262,3.853854 -50.75,3.34174 -14.691161,-0.332786 -26.484895,-1.103247 -31.463029,-2.055416 -4.379666,-0.8377 -8.133254,-1.352866 -8.341306,-1.144814 -0.208053,0.208052 -0.111947,1.21741 0.213568,2.243016 0.393312,1.239218 1.514145,1.85153 3.341306,1.825361 2.267887,-0.03248 2.804883,0.442289 3.065883,2.710621 L 42.132845,27 H 82.566422 123 Z m -20,-6.076161 c 18.51358,-1.721483 29.9194,-4.337776 27.86535,-6.39182 -0.27572,-0.275723 -3.84572,0.146189 -7.93333,0.937582 -14.90289,2.885315 -39.63747,4.022939 -58.27223,2.68013 C 55.221906,14.469643 44.4625,13.328264 40.75,12.613332 35.289501,11.56178 34,11.557197 34,12.58934 c 0,1.453191 1.129928,1.858335 9.5,3.406293 15.807466,2.923427 40.271006,3.716212 59.5,1.928206 z m 13.57143,74.504732 C 114.7446,90.601739 114.58321,88.647288 116.03518,85.934259 116.96022,84.205812 118.21578,84 127.83518,84 139.52467,84 141,84.5788 141,89.164816 141,93.11194 138.5457,94 127.63717,94 c -7.29786,0 -9.85785,-0.363541 -11.06574,-1.571429 z m 21.27696,-1.313711 c 0.74162,-0.469983 1.18641,-1.700592 0.98842,-2.734687 -0.3178,-1.659875 -1.48333,-1.913495 -9.94741,-2.164564 -7.6477,-0.226853 -9.84507,0.02605 -10.86086,1.25 -1.01725,1.225719 -1.023,1.836144 -0.0285,3.034391 0.93259,1.123705 3.40923,1.496159 9.87244,1.484687 4.74516,-0.0084 9.23434,-0.399844 9.97595,-0.869827 z M 5.3940416,63.584473 c -0.2987538,-0.77854 -0.3971307,-2.69104 -0.2186152,-4.25 L 5.5,56.5 17.198072,56.218714 c 11.104467,-0.267013 11.756672,-0.171792 12.852881,1.876493 0.841149,1.571701 0.861077,2.802451 0.07337,4.531286 C 29.07699,64.925131 28.67846,65 17.490054,65 8.4497787,65 5.8190958,64.692146 5.3940416,63.584473 Z M 28,60.5 V 58 H 17.5 7 V 60.5 63 H 17.5 28 Z"
     style="fill:#5e6c84;fill-opacity:1" /></g></g>
</svg>
