<?xml version="1.0" encoding="UTF-8" standalone="no"?>
<svg
   xmlns:dc="http://purl.org/dc/elements/1.1/"
   xmlns:cc="http://creativecommons.org/ns#"
   xmlns:rdf="http://www.w3.org/1999/02/22-rdf-syntax-ns#"
   xmlns:svg="http://www.w3.org/2000/svg"
   xmlns="http://www.w3.org/2000/svg"
   xmlns:sodipodi="http://sodipodi.sourceforge.net/DTD/sodipodi-0.dtd"
   xmlns:inkscape="http://www.inkscape.org/namespaces/inkscape"
   sodipodi:docname="icon-extra-gray.svg"
   width="24.953655mm"
   height="15.151055mm"
   viewBox="0 0 24.953655 15.151056"
   version="1.1"
   id="svg3617"
   inkscape:export-filename="/home/aboozar/white.png"
   inkscape:export-xdpi="313.388"
   inkscape:export-ydpi="313.388"
   inkscape:version="1.0 (4035a4fb49, 2020-05-01)">
  <defs
     id="defs3611" />
  <sodipodi:namedview
     id="base"
     pagecolor="#ffffff"
     bordercolor="#666666"
     borderopacity="1.0"
     inkscape:pageopacity="0.0"
     inkscape:pageshadow="2"
     inkscape:zoom="5.6"
     inkscape:cx="81.100246"
     inkscape:cy="24.951454"
     inkscape:document-units="mm"
     inkscape:current-layer="layer1"
     inkscape:document-rotation="0"
     showgrid="false"
     inkscape:window-width="2048"
     inkscape:window-height="1090"
     inkscape:window-x="0"
     inkscape:window-y="25"
     inkscape:window-maximized="1">
    <inkscape:grid
       type="xygrid"
       id="grid4208"
       originx="-86.084416"
       originy="0.01225" />
  </sodipodi:namedview>
  <metadata
     id="metadata3614">
    <rdf:RDF>
      <cc:Work
         rdf:about="">
        <dc:format>image/svg+xml</dc:format>
        <dc:type
           rdf:resource="http://purl.org/dc/dcmitype/StillImage" />
        <dc:title></dc:title>
      </cc:Work>
    </rdf:RDF>
  </metadata>
  <g
     inkscape:label="Layer 1"
     inkscape:groupmode="layer"
     id="layer1"
     transform="translate(-129.55775,-203.3303)">
    <path
       sodipodi:nodetypes="sssscccccccccccccs"
       style="fill:#f2f2f2;fill-opacity:1;stroke-width:0.159361"
       d="m 129.98208,217.79944 c 0.23348,-0.37251 0.82601,-1.27383 1.31673,-2.00295 0.49072,-0.72911 1.28666,-1.92428 1.76872,-2.65593 0.93957,-1.42602 1.55749,-2.35701 4.54374,-6.84591 l 1.91429,-2.94435 3.18819,-0.01 3.1882,-0.01 -0.008,3.54895 0.004,3.54897 h -2.02238 -2.05781 l -0.0265,-1.54624 -0.0384,-1.54624 -3.70349,5.57011 -3.70347,5.57009 h -2.39409 -2.39406 z"
       id="path3563"
       inkscape:connector-curvature="0"
       inkscape:export-xdpi="313.17706"
       inkscape:export-ydpi="313.17706" />
    <path
       inkscape:connector-curvature="0"
       id="path3473"
       d="m 141.80183,218.47968 c -0.006,-0.57252 -0.0107,-0.98649 -0.0107,-1.93603 v -1.7264 h -1.6607 -1.66904 l 0.8658,-1.47409 0.86583,-1.64113 4.86351,-0.0129 4.86352,0.0205 c 0.96875,0.004 0.90671,-1.72817 0.90827,-2.80579 0.002,-1.07762 -0.15665,-2.5649 -0.87927,-2.56484 l -1.61858,1.4e-4 -1.43145,-0.0123 v -1.49182 -1.49183 h 1.7237 c 2.81787,0 4.49563,0.10599 5.15784,1.05671 0.53048,0.76159 0.78397,2.9264 0.72156,4.50093 -0.16837,4.24801 -0.40503,5.25235 -2.7023,5.74502 -0.43935,0.0943 -2.03814,0.17133 -3.38949,0.17133 h -2.50715 l 0.005,1.79281 0.008,1.87099 -1.9741,-0.003 c -2.13271,-0.003 -0.008,0.008 -2.14029,0.001 z"
       style="fill:#f2f2f2;fill-opacity:1;stroke-width:0.159361"
       sodipodi:nodetypes="csccccccszsccccssssscccscc"
       inkscape:export-xdpi="313.17706"
       inkscape:export-ydpi="313.17706" />
  </g>
</svg>
