<?xml version="1.0" encoding="UTF-8" standalone="no"?>
<svg
   xmlns:dc="http://purl.org/dc/elements/1.1/"
   xmlns:cc="http://creativecommons.org/ns#"
   xmlns:rdf="http://www.w3.org/1999/02/22-rdf-syntax-ns#"
   xmlns:svg="http://www.w3.org/2000/svg"
   xmlns="http://www.w3.org/2000/svg"
   xmlns:sodipodi="http://sodipodi.sourceforge.net/DTD/sodipodi-0.dtd"
   xmlns:inkscape="http://www.inkscape.org/namespaces/inkscape"
   inkscape:version="1.0rc1 (09960d6f05, 2020-04-09)"
   inkscape:export-ydpi="313.388"
   inkscape:export-xdpi="313.388"
   inkscape:export-filename="/home/aboozar/white.png"
   id="svg3617"
   version="1.1"
   viewBox="0 0 81.544577 15.136327"
   height="15.136327mm"
   width="81.544579mm">
  <defs
     id="defs3611" />
  <sodipodi:namedview
     inkscape:window-maximized="1"
     inkscape:window-y="0"
     inkscape:window-x="0"
     inkscape:window-height="1043"
     inkscape:window-width="1920"
     showgrid="false"
     inkscape:document-rotation="0"
     inkscape:current-layer="layer1"
     inkscape:document-units="mm"
     inkscape:cy="66.226986"
     inkscape:cx="132.89863"
     inkscape:zoom="0.98994949"
     inkscape:pageshadow="2"
     inkscape:pageopacity="0.0"
     borderopacity="1.0"
     bordercolor="#666666"
     pagecolor="#ffffff"
     id="base">
    <inkscape:grid
       originy="0.012251761"
       originx="-86.084414"
       id="grid4208"
       type="xygrid" />
  </sodipodi:namedview>
  <metadata
     id="metadata3614">
    <rdf:RDF>
      <cc:Work
         rdf:about="">
        <dc:format>image/svg+xml</dc:format>
        <dc:type
           rdf:resource="http://purl.org/dc/dcmitype/StillImage" />
        <dc:title></dc:title>
      </cc:Work>
    </rdf:RDF>
  </metadata>
  <g
     transform="translate(-43.473334,-203.34255)"
     id="layer1"
     inkscape:groupmode="layer"
     inkscape:label="Layer 1">
    <g
       inkscape:export-ydpi="313.17706"
       inkscape:export-xdpi="313.17706"
       style="fill:#002e5b;fill-opacity:1"
       id="g26-3-2-8-1-5-4"
       transform="matrix(0.26458333,0,0,0.26458333,33.233959,195.85484)">
      <path
         inkscape:connector-curvature="0"
         style="fill:#002e5b;fill-opacity:1"
         id="path8-6-7-7-0-4-9"
         d="m 177.1,51.7 c 0,-4.2 2.1,-6.3 6.3,-6.3 4.2,0 6.3,2.1 6.3,6.3 0,4.2 -2.1,6.3 -6.3,6.3 -4.2,0.1 -6.3,-2 -6.3,-6.3 z"
         class="st0" />
      <path
         inkscape:connector-curvature="0"
         style="fill:#002e5b;fill-opacity:1"
         id="path10-7-0-9-6-7-2"
         d="m 104,79.2 c 0,-4.2 2.1,-6.3 6.3,-6.3 4.2,0 6.3,2.1 6.3,6.3 0,4.2 -2.1,6.3 -6.3,6.3 -4.2,0 -6.3,-2.1 -6.3,-6.3 z"
         class="st0" />
      <path
         inkscape:connector-curvature="0"
         style="fill:#002e5b;fill-opacity:1"
         id="path12-5-9-2-3-4-0"
         d="m 118.2,79.2 c 0,-4.2 2.1,-6.3 6.3,-6.3 4.2,0 6.3,2.1 6.3,6.3 0,4.2 -2.1,6.3 -6.3,6.3 -4.2,0 -6.3,-2.1 -6.3,-6.3 z"
         class="st0" />
      <path
         inkscape:connector-curvature="0"
         style="fill:#002e5b;fill-opacity:1"
         id="path14-3-3-0-2-4-6"
         d="m 132.4,79.2 c 0,-4.2 2.1,-6.3 6.3,-6.3 4.2,0 6.3,2.1 6.3,6.3 0,4.2 -2.1,6.3 -6.3,6.3 -4.2,0 -6.3,-2.1 -6.3,-6.3 z"
         class="st0" />
      <path
         inkscape:connector-curvature="0"
         style="fill:#002e5b;fill-opacity:1"
         id="path16-5-6-2-0-3-8"
         d="m 216,45.3 v 11.8 c 0,9.5 -2.5,16.6 -7.5,21.3 -4.9,4.6 -12.1,7 -21.7,7.1 -0.2,0 -0.5,0 -0.8,0 h -5.1 c -0.3,0 -0.5,0 -0.8,0 -9.6,-0.1 -16.9,-2.5 -21.7,-7.1 -5,-4.7 -7.5,-11.8 -7.5,-21.3 V 45.3 h 12.7 v 11.8 c 0,2.3 0.2,4.5 0.7,6.4 0.5,1.9 1.3,3.6 2.6,5 1.3,1.4 3,2.4 5.3,3.2 2.3,0.7 5.2,1.1 8.8,1.1 h 5.1 c 3.6,0 6.5,-0.4 8.8,-1.1 2.3,-0.7 4,-1.8 5.3,-3.2 1.3,-1.4 2.1,-3 2.6,-5 0.5,-1.9 0.7,-4.1 0.7,-6.4 V 45.3 Z"
         class="st0" />
      <path
         inkscape:connector-curvature="0"
         style="fill:#002e5b;fill-opacity:1"
         id="path18-6-0-3-6-0-9"
         d="m 346.9,38.3 h -15.1 c -2,0 -3.7,0.1 -5.1,0.2 -1.4,0.1 -2.5,0.4 -3.5,0.9 -1,0.5 -1.8,1.2 -2.4,2.1 -0.6,0.9 -1.2,2.2 -1.7,3.8 l -9.5,-2.8 c 0.9,-3.1 2.1,-5.6 3.6,-7.5 1.5,-1.9 3.4,-3.4 5.5,-4.5 1.8,-0.9 3.8,-1.5 6,-1.8 2.1,-0.3 4.5,-0.4 7.1,-0.4 h 15.1 z"
         class="st0" />
      <rect
         style="fill:#002e5b;fill-opacity:1"
         id="rect20-2-6-7-1-7-2"
         height="40.5"
         width="12.7"
         class="st0"
         y="45"
         x="326.60001" />
      <path
         inkscape:connector-curvature="0"
         style="fill:#002e5b;fill-opacity:1"
         id="path22-9-2-5-5-8-6"
         d="m 145.1,45.4 v 12.7 h -41.3 c -0.2,9 -2.7,15.8 -7.5,20.3 -4.9,4.6 -12.1,7 -21.7,7.1 -0.2,0 -0.5,0 -0.8,0 h -5.1 c -0.3,0 -0.5,0 -0.8,0 C 58.3,85.4 51,83 46.2,78.4 41.2,73.7 38.7,66.6 38.7,57.1 V 45.3 h 12.7 v 11.8 c 0,2.3 0.2,4.5 0.7,6.4 0.5,1.9 1.3,3.6 2.6,5 1.3,1.4 3,2.4 5.3,3.2 2.3,0.7 5.2,1.1 8.8,1.1 h 5.1 c 3.6,0 6.5,-0.4 8.8,-1.1 2.3,-0.7 4,-1.8 5.3,-3.2 1.3,-1.4 2.1,-3 2.6,-5 0.4,-1.7 0.6,-3.5 0.7,-5.4 h -19 V 45.4 Z"
         class="st0" />
      <path
         inkscape:connector-curvature="0"
         style="fill:#002e5b;fill-opacity:1"
         id="path24-1-6-9-5-6-6"
         d="m 320.5,72.8 v 12.7 h -73.6 c -3.6,0 -6.7,0.1 -9.4,-0.4 -2.7,-0.5 -4.9,-1.1 -6.8,-2 -1.8,-0.9 -3.3,-2 -4.4,-3.4 -1.1,-1.4 -1.9,-3 -2.5,-4.9 -0.6,-1.9 -1,-4 -1.1,-6.4 -0.2,-2.4 -0.3,-5 -0.3,-7.8 V 45.3 h 12.7 v 15.3 c 0,2.7 0.1,4.9 0.3,6.5 0.2,1.6 0.7,2.9 1.5,3.8 0.8,0.9 2,1.5 3.6,1.8 1.6,0.3 3.8,0.1 6.7,0.1 v 0 z"
         class="st0" />
    </g>
  </g>
</svg>
