<?xml version="1.0" encoding="UTF-8" standalone="no"?>
<svg
   xmlns:dc="http://purl.org/dc/elements/1.1/"
   xmlns:cc="http://creativecommons.org/ns#"
   xmlns:rdf="http://www.w3.org/1999/02/22-rdf-syntax-ns#"
   xmlns:svg="http://www.w3.org/2000/svg"
   xmlns="http://www.w3.org/2000/svg"
   xmlns:sodipodi="http://sodipodi.sourceforge.net/DTD/sodipodi-0.dtd"
   xmlns:inkscape="http://www.inkscape.org/namespaces/inkscape"
   inkscape:version="1.0beta2 (unknown)"
   sodipodi:docname="credit-card-shopping-left.svg"
   viewBox="0 0 666.66663 666.66663"
   height="666.66663"
   width="666.66663"
   xml:space="preserve"
   id="svg2"
   version="1.1"><metadata
     id="metadata8"><rdf:RDF><cc:Work
         rdf:about=""><dc:format>image/svg+xml</dc:format><dc:type
           rdf:resource="http://purl.org/dc/dcmitype/StillImage" /><dc:title></dc:title></cc:Work></rdf:RDF></metadata><defs
     id="defs6"><clipPath
       id="clipPath20"
       clipPathUnits="userSpaceOnUse"><path
         inkscape:connector-curvature="0"
         id="path18"
         d="M 0,500 H 500 V 0 H 0 Z" /></clipPath><clipPath
       id="clipPath260"
       clipPathUnits="userSpaceOnUse"><path
         inkscape:connector-curvature="0"
         id="path258"
         d="M 138.44,332.618 H 251.288 V 253.799 H 138.44 Z" /></clipPath><clipPath
       id="clipPath276"
       clipPathUnits="userSpaceOnUse"><path
         inkscape:connector-curvature="0"
         id="path274"
         d="m 134.729,332.618 h 49.478 v -49.474 h -49.478 z" /></clipPath><clipPath
       id="clipPath292"
       clipPathUnits="userSpaceOnUse"><path
         inkscape:connector-curvature="0"
         id="path290"
         d="m 212.905,303.18 h 49.381 v -49.381 h -49.381 z" /></clipPath><clipPath
       id="clipPath612"
       clipPathUnits="userSpaceOnUse"><path
         inkscape:connector-curvature="0"
         id="path610"
         d="m 261.031,305.103 h 90.781 v -79.237 h -90.781 z" /></clipPath><clipPath
       id="clipPath628"
       clipPathUnits="userSpaceOnUse"><path
         inkscape:connector-curvature="0"
         id="path626"
         d="M 289.47,300.698 H 395.692 V 221.335 H 289.47 Z" /></clipPath><clipPath
       id="clipPath664"
       clipPathUnits="userSpaceOnUse"><path
         inkscape:connector-curvature="0"
         id="path662"
         d="M 0,500 H 500 V 0 H 0 Z" /></clipPath></defs><sodipodi:namedview
     inkscape:current-layer="g10"
     inkscape:window-maximized="1"
     inkscape:window-y="0"
     inkscape:window-x="0"
     inkscape:cy="333.33332"
     inkscape:cx="30.842231"
     inkscape:zoom="0.42149999"
     showgrid="false"
     id="namedview4"
     inkscape:window-height="1090"
     inkscape:window-width="2048"
     inkscape:pageshadow="2"
     inkscape:pageopacity="0"
     guidetolerance="10"
     gridtolerance="10"
     objecttolerance="10"
     borderopacity="1"
     inkscape:document-rotation="0"
     bordercolor="#666666"
     pagecolor="#ffffff" /><g
     transform="matrix(1.3333333,0,0,-1.3333333,0,666.66665)"
     inkscape:label="2919102"
     inkscape:groupmode="layer"
     id="g10"><g
       transform="matrix(-1,0,0,1,500,0)"
       id="g14"><g
         clip-path="url(#clipPath20)"
         id="g16"><g
           transform="translate(273.123,410.249)"
           id="g22"><path
             inkscape:connector-curvature="0"
             id="path24"
             style="fill:#cae6fe;fill-opacity:1;fill-rule:nonzero;stroke:none"
             d="m 0,0 c 0,-1.415 -0.576,-2.704 -1.516,-3.637 -0.926,-0.939 -2.216,-1.515 -3.63,-1.515 H -115.29 c -2.829,0 -5.146,2.318 -5.146,5.152 0,1.415 0.576,2.704 1.515,3.637 0.927,0.939 2.217,1.515 3.631,1.515 h 5.206 c 2.057,4.778 6.805,8.118 12.332,8.118 3.719,0 7.083,-1.515 9.52,-3.957 3.244,5.502 9.229,9.199 16.081,9.199 1.883,0 3.696,-0.285 5.408,-0.803 3.583,6.739 10.667,11.328 18.832,11.328 9.806,0 18.055,-6.621 20.544,-15.63 1.807,0.903 3.846,1.42 6.009,1.42 6.115,0 11.273,-4.083 12.895,-9.675 h 3.317 C -2.317,5.152 0,2.834 0,0" /></g><g
           transform="translate(403.4062,388.3467)"
           id="g26"><path
             inkscape:connector-curvature="0"
             id="path28"
             style="fill:#cae6fe;fill-opacity:1;fill-rule:nonzero;stroke:none"
             d="m 0,0 c 0,-1.04 -0.424,-1.988 -1.114,-2.675 -0.682,-0.69 -1.63,-1.114 -2.67,-1.114 h -81 c -2.081,0 -3.785,1.705 -3.785,3.789 0,1.041 0.423,1.989 1.114,2.675 0.682,0.69 1.63,1.115 2.671,1.115 h 3.828 c 1.512,3.513 5.004,5.969 9.068,5.969 2.736,0 5.209,-1.114 7.001,-2.91 2.387,4.047 6.787,6.765 11.826,6.765 1.386,0 2.719,-0.21 3.978,-0.59 2.635,4.955 7.845,8.33 13.85,8.33 7.211,0 13.277,-4.869 15.108,-11.495 1.328,0.665 2.827,1.045 4.418,1.045 4.497,0 8.291,-3.002 9.483,-7.114 h 2.44 C -1.704,3.79 0,2.085 0,0" /></g><g
           transform="translate(466.8896,222.7148)"
           id="g30"><path
             inkscape:connector-curvature="0"
             id="path32"
             style="fill:#cae6fe;fill-opacity:1;fill-rule:nonzero;stroke:none"
             d="m 0,0 c 2.329,-2.584 2.12,-6.58 -0.464,-8.909 -2.584,-2.329 -6.58,-2.12 -8.908,0.464 -2.329,2.584 -2.121,6.58 0.463,8.909 C -6.325,2.792 -2.329,2.584 0,0 m -7.749,10.936 c -1.362,-0.274 -2.69,-0.73 -3.956,-1.373 l -4.204,4.666 -5.113,-4.608 4.026,-4.467 C -17.932,3.93 -18.658,2.596 -19.179,1.195 l -7.024,0.365 -0.359,-6.872 6.48,-0.337 c 0.177,-1.926 0.711,-3.823 1.611,-5.591 l -4.667,-4.205 4.608,-5.114 4.467,4.026 c 1.455,-1.11 3.068,-1.922 4.758,-2.447 l -0.303,-5.829 6.873,-0.357 0.292,5.63 c 2.023,0.294 4,0.995 5.807,2.097 l 4.025,-4.467 5.112,4.607 -4.205,4.666 c 0.772,1.193 1.363,2.466 1.775,3.791 l 6.639,-0.346 0.358,6.874 -6.441,0.335 C 10.333,0.044 9.633,2.02 8.531,3.828 L 12.997,7.852 8.39,12.965 3.724,8.761 c -1.431,0.925 -2.979,1.606 -4.591,2.014 l 0.335,6.44 -6.873,0.358 z" /></g><g
           transform="translate(76.3301,336.4141)"
           id="g34"><path
             inkscape:connector-curvature="0"
             id="path36"
             style="fill:#cae6fe;fill-opacity:1;fill-rule:nonzero;stroke:none"
             d="m 0,0 c 2.329,-2.584 2.121,-6.58 -0.463,-8.909 -2.584,-2.329 -6.58,-2.12 -8.91,0.464 -2.328,2.584 -2.12,6.58 0.464,8.909 C -6.325,2.792 -2.329,2.584 0,0 m -7.749,10.936 c -1.362,-0.274 -2.69,-0.73 -3.956,-1.374 l -4.204,4.667 -5.113,-4.608 4.025,-4.466 c -0.934,-1.225 -1.662,-2.56 -2.182,-3.96 l -7.024,0.365 -0.358,-6.873 6.479,-0.336 c 0.177,-1.926 0.711,-3.822 1.611,-5.591 l -4.666,-4.205 4.607,-5.114 4.467,4.026 c 1.455,-1.11 3.067,-1.922 4.758,-2.447 l -0.303,-5.829 6.873,-0.357 0.292,5.63 c 2.023,0.294 4,0.995 5.807,2.097 l 4.025,-4.467 5.112,4.608 -4.205,4.666 c 0.772,1.192 1.364,2.465 1.776,3.791 l 6.637,-0.346 0.359,6.873 -6.441,0.335 C 10.333,0.044 9.632,2.02 8.531,3.828 L 12.997,7.852 8.39,12.965 3.724,8.761 c -1.432,0.925 -2.979,1.606 -4.591,2.015 l 0.335,6.439 -6.873,0.359 z" /></g><g
           transform="translate(455.9727,263.8447)"
           id="g38"><path
             inkscape:connector-curvature="0"
             id="path40"
             style="fill:#cae6fe;fill-opacity:1;fill-rule:nonzero;stroke:none"
             d="M 0,0 C 1.272,-1.412 1.159,-3.596 -0.253,-4.869 -1.666,-6.141 -3.85,-6.027 -5.122,-4.615 -6.395,-3.203 -6.281,-1.02 -4.869,0.253 -3.456,1.526 -1.272,1.412 0,0 M -4.235,5.976 C -4.979,5.827 -5.705,5.578 -6.396,5.226 l -2.298,2.55 -2.794,-2.518 2.2,-2.441 C -9.8,2.148 -10.197,1.418 -10.481,0.653 l -3.838,0.2 -0.197,-3.756 3.541,-0.184 c 0.097,-1.053 0.388,-2.089 0.88,-3.055 l -2.55,-2.299 2.518,-2.794 2.441,2.2 c 0.795,-0.607 1.677,-1.05 2.601,-1.338 l -0.166,-3.185 3.756,-0.195 0.16,3.077 c 1.106,0.16 2.186,0.543 3.174,1.145 l 2.199,-2.44 2.794,2.517 -2.299,2.551 c 0.423,0.651 0.746,1.347 0.971,2.071 l 3.628,-0.189 0.196,3.757 -3.52,0.182 C 5.646,0.024 5.265,1.104 4.662,2.092 L 7.103,4.292 4.585,7.085 2.035,4.788 C 1.253,5.293 0.407,5.666 -0.474,5.889 l 0.183,3.519 -3.756,0.196 z" /></g><g
           transform="translate(46.6953,296.1636)"
           id="g42"><path
             inkscape:connector-curvature="0"
             id="path44"
             style="fill:#cae6fe;fill-opacity:1;fill-rule:nonzero;stroke:none"
             d="M 0,0 C 1.272,-1.412 1.159,-3.596 -0.253,-4.869 -1.666,-6.142 -3.85,-6.028 -5.122,-4.616 -6.395,-3.204 -6.281,-1.02 -4.869,0.253 -3.457,1.526 -1.272,1.412 0,0 M -4.235,5.976 C -4.979,5.827 -5.706,5.578 -6.396,5.226 l -2.298,2.549 -2.794,-2.517 2.199,-2.441 c -0.51,-0.669 -0.908,-1.399 -1.192,-2.164 l -3.839,0.2 -0.196,-3.757 3.541,-0.183 c 0.097,-1.053 0.389,-2.089 0.881,-3.056 l -2.551,-2.298 2.518,-2.794 2.441,2.2 c 0.796,-0.607 1.677,-1.05 2.601,-1.338 l -0.166,-3.185 3.756,-0.195 0.16,3.077 c 1.106,0.16 2.186,0.543 3.173,1.145 l 2.2,-2.441 2.794,2.518 -2.298,2.55 c 0.422,0.652 0.745,1.348 0.97,2.072 l 3.628,-0.189 0.196,3.756 -3.52,0.183 C 5.647,0.024 5.264,1.104 4.662,2.092 L 7.103,4.291 4.585,7.085 2.035,4.788 C 1.253,5.293 0.407,5.666 -0.474,5.889 l 0.183,3.519 -3.756,0.196 z" /></g><g
           transform="translate(459.6719,65.2617)"
           id="g46"><path
             inkscape:connector-curvature="0"
             id="path48"
             style="fill:#cae6fe;fill-opacity:1;fill-rule:nonzero;stroke:none"
             d="m 0,0 c 0,-8.981 -98.221,-16.262 -219.382,-16.262 -121.161,0 -219.382,7.281 -219.382,16.262 0,8.981 98.221,16.262 219.382,16.262 C -98.221,16.262 0,8.981 0,0" /></g><g
           transform="translate(452.9863,300.3672)"
           id="g50"><path
             inkscape:connector-curvature="0"
             id="path52"
             style="fill:#61b3ff;fill-opacity:1;fill-rule:nonzero;stroke:none"
             d="M 0,0 C 2.24,0 4.062,1.823 4.062,4.063 4.062,6.303 2.24,8.125 0,8.125 -2.24,8.125 -4.062,6.303 -4.062,4.063 -4.062,1.823 -2.24,0 0,0 m 0,9.982 c 3.265,0 5.92,-2.655 5.92,-5.919 0,-3.264 -2.655,-5.92 -5.92,-5.92 -3.264,0 -5.92,2.656 -5.92,5.92 0,3.264 2.656,5.919 5.92,5.919" /></g><g
           transform="translate(426.9092,317.6533)"
           id="g54"><path
             inkscape:connector-curvature="0"
             id="path56"
             style="fill:#007ce6;fill-opacity:1;fill-rule:nonzero;stroke:none"
             d="M 0,0 C 2.24,0 4.062,1.822 4.062,4.063 4.062,6.303 2.24,8.125 0,8.125 -2.24,8.125 -4.062,6.303 -4.062,4.063 -4.062,1.822 -2.24,0 0,0 m 0,9.982 c 3.264,0 5.919,-2.655 5.919,-5.919 0,-3.265 -2.655,-5.92 -5.919,-5.92 -3.265,0 -5.92,2.655 -5.92,5.92 0,3.264 2.655,5.919 5.92,5.919" /></g><g
           transform="translate(424.2949,344.0552)"
           id="g58"><path
             inkscape:connector-curvature="0"
             id="path60"
             style="fill:#61b3ff;fill-opacity:1;fill-rule:nonzero;stroke:none"
             d="m 0,0 c 0.513,0 0.929,-0.416 0.929,-0.929 v -4.095 c 0,-0.513 -0.416,-0.928 -0.929,-0.928 -0.513,0 -0.929,0.415 -0.929,0.928 v 4.095 C -0.929,-0.416 -0.513,0 0,0" /></g><g
           transform="translate(424.2949,351.2212)"
           id="g62"><path
             inkscape:connector-curvature="0"
             id="path64"
             style="fill:#61b3ff;fill-opacity:1;fill-rule:nonzero;stroke:none"
             d="m 0,0 c 0.513,0 0.929,-0.416 0.929,-0.929 v -4.094 c 0,-0.514 -0.416,-0.929 -0.929,-0.929 -0.513,0 -0.929,0.415 -0.929,0.929 v 4.094 C -0.929,-0.416 -0.513,0 0,0" /></g><g
           transform="translate(418.5469,345.5908)"
           id="g66"><path
             inkscape:connector-curvature="0"
             id="path68"
             style="fill:#61b3ff;fill-opacity:1;fill-rule:nonzero;stroke:none"
             d="m 0,0 h 3.679 c 0.512,0 0.928,-0.416 0.928,-0.929 0,-0.513 -0.416,-0.928 -0.928,-0.928 H 0 c -0.513,0 -0.929,0.415 -0.929,0.928 C -0.929,-0.416 -0.513,0 0,0" /></g><g
           transform="translate(426.3643,345.5908)"
           id="g70"><path
             inkscape:connector-curvature="0"
             id="path72"
             style="fill:#61b3ff;fill-opacity:1;fill-rule:nonzero;stroke:none"
             d="m 0,0 h 3.679 c 0.512,0 0.928,-0.416 0.928,-0.929 0,-0.513 -0.416,-0.928 -0.928,-0.928 H 0 c -0.513,0 -0.929,0.415 -0.929,0.928 C -0.929,-0.416 -0.513,0 0,0" /></g><g
           transform="translate(456.3623,328.5967)"
           id="g74"><path
             inkscape:connector-curvature="0"
             id="path76"
             style="fill:#61b3ff;fill-opacity:1;fill-rule:nonzero;stroke:none"
             d="m 0,0 c 0.513,0 0.929,-0.416 0.929,-0.928 v -4.095 c 0,-0.514 -0.416,-0.929 -0.929,-0.929 -0.514,0 -0.929,0.415 -0.929,0.929 v 4.095 C -0.929,-0.416 -0.514,0 0,0" /></g><g
           transform="translate(456.3623,335.7632)"
           id="g78"><path
             inkscape:connector-curvature="0"
             id="path80"
             style="fill:#61b3ff;fill-opacity:1;fill-rule:nonzero;stroke:none"
             d="m 0,0 c 0.513,0 0.929,-0.416 0.929,-0.929 v -4.094 c 0,-0.514 -0.416,-0.929 -0.929,-0.929 -0.514,0 -0.929,0.415 -0.929,0.929 v 4.094 C -0.929,-0.416 -0.514,0 0,0" /></g><g
           transform="translate(450.6143,330.1323)"
           id="g82"><path
             inkscape:connector-curvature="0"
             id="path84"
             style="fill:#61b3ff;fill-opacity:1;fill-rule:nonzero;stroke:none"
             d="m 0,0 h 3.679 c 0.512,0 0.927,-0.416 0.927,-0.928 0,-0.513 -0.415,-0.929 -0.927,-0.929 H 0 c -0.513,0 -0.929,0.416 -0.929,0.929 C -0.929,-0.416 -0.513,0 0,0" /></g><g
           transform="translate(458.4316,330.1323)"
           id="g86"><path
             inkscape:connector-curvature="0"
             id="path88"
             style="fill:#61b3ff;fill-opacity:1;fill-rule:nonzero;stroke:none"
             d="m 0,0 h 3.679 c 0.512,0 0.927,-0.416 0.927,-0.928 0,-0.513 -0.415,-0.929 -0.927,-0.929 H 0 c -0.513,0 -0.929,0.416 -0.929,0.929 C -0.929,-0.416 -0.513,0 0,0" /></g><g
           transform="translate(100.9517,393.626)"
           id="g90"><path
             inkscape:connector-curvature="0"
             id="path92"
             style="fill:#61b3ff;fill-opacity:1;fill-rule:nonzero;stroke:none"
             d="M 0,0 C 2.24,0 4.062,1.822 4.062,4.062 4.062,6.302 2.24,8.125 0,8.125 -2.24,8.125 -4.063,6.302 -4.063,4.062 -4.063,1.822 -2.24,0 0,0 m 0,-1.857 c -3.264,0 -5.92,2.655 -5.92,5.919 0,3.264 2.656,5.92 5.92,5.92 3.264,0 5.919,-2.656 5.919,-5.92 C 5.919,0.798 3.264,-1.857 0,-1.857" /></g><g
           transform="translate(119.2158,376.123)"
           id="g94"><path
             inkscape:connector-curvature="0"
             id="path96"
             style="fill:#007ce6;fill-opacity:1;fill-rule:nonzero;stroke:none"
             d="M 0,0 C 2.24,0 4.062,1.823 4.062,4.062 4.062,6.303 2.24,8.125 0,8.125 -2.24,8.125 -4.062,6.303 -4.062,4.062 -4.062,1.823 -2.24,0 0,0 m 0,-1.857 c -3.264,0 -5.92,2.656 -5.92,5.919 0,3.265 2.656,5.92 5.92,5.92 3.264,0 5.92,-2.655 5.92,-5.92 C 5.92,0.799 3.264,-1.857 0,-1.857" /></g><g
           transform="translate(137.8325,397.1289)"
           id="g98"><path
             inkscape:connector-curvature="0"
             id="path100"
             style="fill:#61b3ff;fill-opacity:1;fill-rule:nonzero;stroke:none"
             d="m 0,0 c 0,0.513 -0.416,0.929 -0.928,0.929 h -4.095 c -0.513,0 -0.929,-0.416 -0.929,-0.929 0,-0.513 0.416,-0.928 0.929,-0.928 h 4.095 C -0.416,-0.928 0,-0.513 0,0" /></g><g
           transform="translate(144.999,397.1289)"
           id="g102"><path
             inkscape:connector-curvature="0"
             id="path104"
             style="fill:#61b3ff;fill-opacity:1;fill-rule:nonzero;stroke:none"
             d="m 0,0 c 0,0.513 -0.416,0.929 -0.929,0.929 h -4.094 c -0.514,0 -0.929,-0.416 -0.929,-0.929 0,-0.513 0.415,-0.928 0.929,-0.928 h 4.094 C -0.416,-0.928 0,-0.513 0,0" /></g><g
           transform="translate(139.3682,391.3809)"
           id="g106"><path
             inkscape:connector-curvature="0"
             id="path108"
             style="fill:#61b3ff;fill-opacity:1;fill-rule:nonzero;stroke:none"
             d="m 0,0 v 3.679 c 0,0.512 -0.416,0.928 -0.928,0.928 -0.513,0 -0.929,-0.416 -0.929,-0.928 V 0 c 0,-0.513 0.416,-0.928 0.929,-0.928 C -0.416,-0.928 0,-0.513 0,0" /></g><g
           transform="translate(139.3682,399.1987)"
           id="g110"><path
             inkscape:connector-curvature="0"
             id="path112"
             style="fill:#61b3ff;fill-opacity:1;fill-rule:nonzero;stroke:none"
             d="m 0,0 v 3.678 c 0,0.513 -0.416,0.929 -0.928,0.929 -0.513,0 -0.929,-0.416 -0.929,-0.929 V 0 c 0,-0.513 0.416,-0.929 0.929,-0.929 C -0.416,-0.929 0,-0.513 0,0" /></g><g
           transform="translate(87.1694,375.6182)"
           id="g114"><path
             inkscape:connector-curvature="0"
             id="path116"
             style="fill:#61b3ff;fill-opacity:1;fill-rule:nonzero;stroke:none"
             d="m 0,0 c 0,0.513 -0.416,0.929 -0.929,0.929 h -4.094 c -0.514,0 -0.929,-0.416 -0.929,-0.929 0,-0.513 0.415,-0.929 0.929,-0.929 h 4.094 C -0.416,-0.929 0,-0.513 0,0" /></g><g
           transform="translate(94.3359,375.6182)"
           id="g118"><path
             inkscape:connector-curvature="0"
             id="path120"
             style="fill:#61b3ff;fill-opacity:1;fill-rule:nonzero;stroke:none"
             d="m 0,0 c 0,0.513 -0.416,0.929 -0.929,0.929 h -4.094 c -0.514,0 -0.929,-0.416 -0.929,-0.929 0,-0.513 0.415,-0.929 0.929,-0.929 h 4.094 C -0.416,-0.929 0,-0.513 0,0" /></g><g
           transform="translate(88.7051,369.8701)"
           id="g122"><path
             inkscape:connector-curvature="0"
             id="path124"
             style="fill:#61b3ff;fill-opacity:1;fill-rule:nonzero;stroke:none"
             d="m 0,0 v 3.679 c 0,0.512 -0.416,0.928 -0.929,0.928 -0.512,0 -0.928,-0.416 -0.928,-0.928 V 0 c 0,-0.513 0.416,-0.928 0.928,-0.928 C -0.416,-0.928 0,-0.513 0,0" /></g><g
           transform="translate(88.7051,377.6875)"
           id="g126"><path
             inkscape:connector-curvature="0"
             id="path128"
             style="fill:#61b3ff;fill-opacity:1;fill-rule:nonzero;stroke:none"
             d="m 0,0 v 3.679 c 0,0.512 -0.416,0.928 -0.929,0.928 -0.512,0 -0.928,-0.416 -0.928,-0.928 V 0 c 0,-0.513 0.416,-0.929 0.928,-0.929 C -0.416,-0.929 0,-0.513 0,0" /></g><g
           transform="translate(274.9668,86.4219)"
           id="g130"><path
             inkscape:connector-curvature="0"
             id="path132"
             style="fill:#abd3f2;fill-opacity:1;fill-rule:nonzero;stroke:none"
             d="M 0,0 C 16.88,13.064 33.742,27.709 43.768,38.722 56.864,53.108 63.83,65.549 64.469,75.698 64.511,76.371 64,76.95 63.327,76.993 62.653,77.035 62.074,76.524 62.032,75.852 60.915,58.11 38.577,32.271 -2.601,1.062 Z" /></g><g
           transform="translate(329.3408,138.9414)"
           id="g134"><path
             inkscape:connector-curvature="0"
             id="path136"
             style="fill:#cae6fe;fill-opacity:1;fill-rule:nonzero;stroke:none"
             d="M 0,0 C 0,0 6.783,-7.622 19.718,4.828 19.718,4.828 6.025,13.55 0,0" /></g><g
           transform="translate(323.0039,132.1777)"
           id="g138"><path
             inkscape:connector-curvature="0"
             id="path140"
             style="fill:#cae6fe;fill-opacity:1;fill-rule:nonzero;stroke:none"
             d="M 0,0 C 0,0 7.988,6.349 -3.723,19.956 -3.723,19.956 -13.193,6.771 0,0" /></g><g
           transform="translate(336.6494,154.7129)"
           id="g142"><path
             inkscape:connector-curvature="0"
             id="path144"
             style="fill:#cae6fe;fill-opacity:1;fill-rule:nonzero;stroke:none"
             d="M 0,0 C 0,0 9.646,3.322 3.143,20.055 3.143,20.055 -10.182,10.781 0,0" /></g><g
           transform="translate(310.6768,118.1777)"
           id="g146"><path
             inkscape:connector-curvature="0"
             id="path148"
             style="fill:#cae6fe;fill-opacity:1;fill-rule:nonzero;stroke:none"
             d="M 0,0 C 0,0 3.805,-9.467 20.188,-2.126 20.188,-2.126 10.254,10.713 0,0" /></g><g
           transform="translate(303.1777,112.2646)"
           id="g150"><path
             inkscape:connector-curvature="0"
             id="path152"
             style="fill:#cae6fe;fill-opacity:1;fill-rule:nonzero;stroke:none"
             d="M 0,0 C 0,0 8.966,4.872 -0.216,20.3 -0.216,20.3 -11.824,8.95 0,0" /></g><g
           transform="translate(293.7158,103.1494)"
           id="g154"><path
             inkscape:connector-curvature="0"
             id="path156"
             style="fill:#cae6fe;fill-opacity:1;fill-rule:nonzero;stroke:none"
             d="m 0,0 c 0,0 3.625,-9.538 20.145,-2.509 0,0 -9.69,13.026 -20.145,2.509" /></g><g
           transform="translate(109.3247,198.0986)"
           id="g158"><path
             inkscape:connector-curvature="0"
             id="path160"
             style="fill:#abd3f2;fill-opacity:1;fill-rule:nonzero;stroke:none"
             d="m 0,0 c -12.144,17.554 -23.793,36.608 -30.022,50.136 -8.139,17.671 -11.02,31.635 -8.562,41.502 0.163,0.654 0.825,1.053 1.48,0.89 0.654,-0.163 1.052,-0.825 0.889,-1.48 C -40.51,73.798 -27.023,42.418 2.8,0.226 Z" /></g><g
           transform="translate(73.3604,264.5918)"
           id="g162"><path
             inkscape:connector-curvature="0"
             id="path164"
             style="fill:#cae6fe;fill-opacity:1;fill-rule:nonzero;stroke:none"
             d="M 0,0 C 0,0 -8.769,-5.216 -17.337,10.56 -17.337,10.56 -1.65,14.737 0,0" /></g><g
           transform="translate(77.3574,256.23)"
           id="g166"><path
             inkscape:connector-curvature="0"
             id="path168"
             style="fill:#cae6fe;fill-opacity:1;fill-rule:nonzero;stroke:none"
             d="M 0,0 C 0,0 -5.696,8.465 9.578,17.898 9.578,17.898 14.623,2.468 0,0" /></g><g
           transform="translate(71.1587,281.834)"
           id="g170"><path
             inkscape:connector-curvature="0"
             id="path172"
             style="fill:#cae6fe;fill-opacity:1;fill-rule:nonzero;stroke:none"
             d="M 0,0 C 0,0 -8.192,6.082 3.063,20.068 3.063,20.068 12.963,7.202 0,0" /></g><g
           transform="translate(84.8794,239.1602)"
           id="g174"><path
             inkscape:connector-curvature="0"
             id="path176"
             style="fill:#cae6fe;fill-opacity:1;fill-rule:nonzero;stroke:none"
             d="m 0,0 c 0,0 -6.488,-7.876 -19.888,4.072 0,0 13.35,9.238 19.888,-4.072" /></g><g
           transform="translate(90.2407,231.2578)"
           id="g178"><path
             inkscape:connector-curvature="0"
             id="path180"
             style="fill:#cae6fe;fill-opacity:1;fill-rule:nonzero;stroke:none"
             d="M 0,0 C 0,0 -7.074,7.353 6.339,19.285 6.339,19.285 13.976,4.959 0,0" /></g><g
           transform="translate(96.5068,219.709)"
           id="g182"><path
             inkscape:connector-curvature="0"
             id="path184"
             style="fill:#cae6fe;fill-opacity:1;fill-rule:nonzero;stroke:none"
             d="m 0,0 c 0,0 -6.337,-7.997 -19.961,3.694 0,0 13.172,9.49 19.961,-3.694" /></g><g
           transform="translate(340.0996,374.2368)"
           id="g186"><path
             inkscape:connector-curvature="0"
             id="path188"
             style="fill:#abd3f2;fill-opacity:1;fill-rule:nonzero;stroke:none"
             d="m 0,0 c -15.581,0.358 -19.72,-13.983 -31.163,-9.957 -11.442,4.025 -22.544,-0.399 -23.646,-11.049 -1.1,-10.653 -1.315,-18.554 -14.263,-19.398 -12.947,-0.842 -23.365,-13.491 -16.153,-22.154 1.794,-2.159 3.741,-4.491 5.652,-6.775 0.522,-0.624 1.042,-1.246 1.553,-1.858 0.119,-0.142 0.236,-0.286 0.355,-0.425 7.686,-9.19 21.12,-11.309 31.062,-4.625 4.026,2.706 7.031,6.527 7.168,11.914 0.442,16.869 14.146,6.317 23.664,13.381 10.964,8.134 5.341,19.962 14.114,25.129 C 10.543,-18.627 15.581,-0.359 0,0" /></g><g
           transform="translate(328.0234,357.8384)"
           id="g190"><path
             inkscape:connector-curvature="0"
             id="path192"
             style="fill:#90c3ef;fill-opacity:1;fill-rule:nonzero;stroke:none"
             d="m 0,0 -67.497,-52.935 c 0.522,-0.623 1.042,-1.246 1.554,-1.857 L 1.493,-1.906 c 0.526,0.412 0.619,1.174 0.206,1.699 C 1.287,0.32 0.525,0.413 0,0" /></g><g
           transform="translate(288.6729,404.2212)"
           id="g194"><path
             inkscape:connector-curvature="0"
             id="path196"
             style="fill:#cae6fe;fill-opacity:1;fill-rule:nonzero;stroke:none"
             d="m 0,0 c -13.654,-7.513 -10.032,-21.994 -21.951,-24.258 -11.916,-2.264 -19.295,-11.664 -14.901,-21.428 4.398,-9.765 8.179,-16.705 -2.595,-23.937 -10.774,-7.229 -13.432,-23.398 -2.845,-27.269 2.635,-0.966 5.489,-2.006 8.289,-3.022 0.765,-0.277 1.527,-0.554 2.277,-0.827 0.173,-0.064 0.347,-0.128 0.52,-0.189 11.262,-4.088 23.943,0.825 29.185,11.597 2.123,4.361 2.802,9.174 0.217,13.903 -8.089,14.809 9.062,12.565 13.745,23.452 5.399,12.54 -5.403,19.946 -0.411,28.82 C 18.471,-10.814 13.655,7.513 0,0" /></g><g
           transform="translate(286.4629,383.9761)"
           id="g198"><path
             inkscape:connector-curvature="0"
             id="path200"
             style="fill:#abd3f2;fill-opacity:1;fill-rule:nonzero;stroke:none"
             d="m 0,0 -31.793,-79.669 c 0.765,-0.277 1.527,-0.554 2.277,-0.827 L 2.248,-0.898 C 2.496,-0.278 2.194,0.427 1.573,0.675 0.953,0.923 0.248,0.621 0,0" /></g><g
           transform="translate(85.1938,196.2314)"
           id="g202"><path
             inkscape:connector-curvature="0"
             id="path204"
             style="fill:#abd3f2;fill-opacity:1;fill-rule:nonzero;stroke:none"
             d="m 0,0 c 14.343,-6.097 12.202,-20.868 24.288,-21.919 12.084,-1.049 20.374,-9.657 16.987,-19.813 -3.389,-10.16 -6.45,-17.447 4.998,-23.553 11.449,-6.105 15.726,-21.924 5.583,-26.844 -2.523,-1.226 -5.258,-2.549 -7.941,-3.843 -0.733,-0.352 -1.463,-0.705 -2.182,-1.051 -0.167,-0.081 -0.333,-0.164 -0.499,-0.242 -10.791,-5.204 -23.903,-1.595 -30.206,8.592 -2.551,4.125 -3.714,8.845 -1.619,13.81 6.552,15.55 -10.284,11.587 -16.043,21.946 -6.636,11.931 3.363,20.389 -2.499,28.713 C -17.284,-12.624 -14.343,6.097 0,0" /></g><g
           transform="translate(89.4365,176.3135)"
           id="g206"><path
             inkscape:connector-curvature="0"
             id="path208"
             style="fill:#90c3ef;fill-opacity:1;fill-rule:nonzero;stroke:none"
             d="m 0,0 39.672,-76.054 c -0.733,-0.352 -1.463,-0.705 -2.182,-1.051 L -2.146,-1.122 c -0.31,0.593 -0.081,1.325 0.512,1.635 C -1.041,0.821 -0.309,0.592 0,0" /></g><g
           transform="translate(49.771,161.3193)"
           id="g210"><path
             inkscape:connector-curvature="0"
             id="path212"
             style="fill:#cae6fe;fill-opacity:1;fill-rule:nonzero;stroke:none"
             d="m 0,0 c 15.575,-0.563 18.858,-15.125 30.52,-11.784 11.66,3.342 22.48,-1.733 22.95,-12.429 0.468,-10.699 0.214,-18.599 13.09,-20.208 12.874,-1.607 22.525,-14.85 14.813,-23.072 -1.918,-2.048 -3.999,-4.261 -6.042,-6.428 -0.559,-0.592 -1.115,-1.183 -1.662,-1.763 -0.126,-0.135 -0.252,-0.271 -0.379,-0.404 -8.217,-8.718 -21.752,-10.038 -31.282,-2.777 -3.858,2.939 -6.631,6.931 -6.45,12.317 0.559,16.865 -13.747,7.143 -22.829,14.758 C 2.264,-43.021 8.578,-31.547 0.126,-25.869 -11.627,-17.97 -15.575,0.564 0,0" /></g><g
           transform="translate(60.856,144.2354)"
           id="g214"><path
             inkscape:connector-curvature="0"
             id="path216"
             style="fill:#abd3f2;fill-opacity:1;fill-rule:nonzero;stroke:none"
             d="M 0,0 64.246,-56.837 C 63.687,-57.429 63.131,-58.02 62.584,-58.6 L -1.603,-1.814 c -0.501,0.443 -0.549,1.209 -0.106,1.709 C -1.266,0.396 -0.5,0.443 0,0" /></g><g
           transform="translate(422.8721,67.1895)"
           id="g218"><path
             inkscape:connector-curvature="0"
             id="path220"
             style="fill:#abd3f2;fill-opacity:1;fill-rule:nonzero;stroke:none"
             d="m 0,0 c 2.446,11.188 14.572,3.033 23.232,9.461 10.965,8.134 5.342,19.962 14.115,25.13 12.2,7.189 17.239,25.458 1.657,25.816 C 23.423,60.766 19.284,46.424 7.84,50.45 -3.602,54.476 -14.703,50.051 -15.805,39.401 -16.905,28.748 -17.12,20.848 -30.067,20.004 -41.978,19.229 -51.746,8.464 -47.621,0 Z" /></g><g
           transform="translate(397.6074,67.1895)"
           id="g222"><path
             inkscape:connector-curvature="0"
             id="path224"
             style="fill:#90c3ef;fill-opacity:1;fill-rule:nonzero;stroke:none"
             d="m 0,0 53.686,42.103 c 0.525,0.413 0.619,1.173 0.206,1.7 -0.413,0.525 -1.174,0.619 -1.7,0.206 L -3.923,0 Z" /></g><g
           transform="translate(407.8779,67.1895)"
           id="g226"><path
             inkscape:connector-curvature="0"
             id="path228"
             style="fill:#cae6fe;fill-opacity:1;fill-rule:nonzero;stroke:none"
             d="M 0,0 C 0.191,0.347 0.376,0.699 0.551,1.059 2.673,5.42 3.353,10.233 0.768,14.962 -7.321,29.771 9.829,27.526 14.513,38.414 19.911,50.954 9.109,58.359 14.101,67.233 21.042,79.577 16.227,97.905 2.572,90.392 -11.083,82.879 -7.461,68.397 -19.38,66.134 -31.296,63.87 -38.675,54.469 -34.28,44.706 -29.883,34.94 -26.102,28 -36.875,20.77 -44.314,15.777 -47.882,6.525 -45.894,0 Z" /></g><g
           transform="translate(382.8535,67.1895)"
           id="g230"><path
             inkscape:connector-curvature="0"
             id="path232"
             style="fill:#abd3f2;fill-opacity:1;fill-rule:nonzero;stroke:none"
             d="m 0,0 27.634,69.248 c 0.248,0.621 -0.054,1.326 -0.675,1.573 -0.62,0.248 -1.325,-0.053 -1.573,-0.675 L -2.607,0 Z" /></g><g
           transform="translate(285.5391,65.4951)"
           id="g234"><path
             inkscape:connector-curvature="0"
             id="path236"
             style="fill:#18184b;fill-opacity:1;fill-rule:nonzero;stroke:none"
             d="m 0,0 h -174.063 c -3.582,0 -6.485,2.903 -6.485,6.484 v 254.034 c 0,3.581 2.903,6.484 6.485,6.484 H 0 c 3.581,0 6.484,-2.903 6.484,-6.484 V 6.484 C 6.484,2.903 3.581,0 0,0" /></g><g
           transform="translate(272.1572,80.9766)"
           id="g238"><path
             inkscape:connector-curvature="0"
             id="path240"
             style="fill:#304e7e;fill-opacity:1;fill-rule:nonzero;stroke:none"
             d="m 0,0 h -147.3 c -3.581,0 -6.485,2.902 -6.485,6.484 v 261.494 c 0,3.581 2.904,6.484 6.485,6.484 H 0 c 3.581,0 6.484,-2.903 6.484,-6.484 V 6.483 C 6.484,2.902 3.581,0 0,0" /></g><g
           transform="translate(139.0747,355.439)"
           id="g242"><path
             inkscape:connector-curvature="0"
             id="path244"
             style="fill:#18184b;fill-opacity:1;fill-rule:nonzero;stroke:none"
             d="m 0,0 v 0 h 118.866 c 0,2.183 -1.77,3.952 -3.952,3.952 H 3.951 C 1.769,3.952 0,2.183 0,0" /></g><g
           transform="translate(252.3135,91.9365)"
           id="g246"><path
             inkscape:connector-curvature="0"
             id="path248"
             style="fill:#18184b;fill-opacity:1;fill-rule:nonzero;stroke:none"
             d="m 0,0 h -107.612 c -0.673,0 -1.219,0.545 -1.219,1.219 v 1.41 c 0,0.674 0.546,1.22 1.219,1.22 H 0 c 0.673,0 1.219,-0.546 1.219,-1.22 V 1.219 C 1.219,0.545 0.673,0 0,0" /></g><g
           transform="translate(262.2861,327.2236)"
           id="g250"><path
             inkscape:connector-curvature="0"
             id="path252"
             style="fill:#cae6fe;fill-opacity:1;fill-rule:nonzero;stroke:none"
             d="m 0,0 v -68.026 c 0,-2.982 -2.417,-5.398 -5.398,-5.398 h -116.761 c -0.591,0 -1.156,0.092 -1.688,0.267 -2.156,0.71 -3.71,2.74 -3.71,5.131 V 0 c 0,2.978 2.417,5.395 5.398,5.395 H -5.398 C -2.417,5.395 0,2.978 0,0" /></g><g
           id="g254"><g
             id="g256" /><g
             id="g268"><g
               id="g266"
               opacity="0.399994"
               clip-path="url(#clipPath260)"><g
                 id="g264"
                 transform="translate(251.2881,332.6182)"><path
                   inkscape:connector-curvature="0"
                   id="path262"
                   style="fill:#ffffff;fill-opacity:1;fill-rule:nonzero;stroke:none"
                   d="m 0,0 -78.815,-78.819 h -32.346 c -0.59,0 -1.156,0.093 -1.688,0.268 L -34.301,0 Z" /></g></g></g></g><g
           id="g270"><g
             id="g272" /><g
             id="g284"><g
               id="g282"
               opacity="0.399994"
               clip-path="url(#clipPath276)"><g
                 id="g280"
                 transform="translate(184.2065,332.6182)"><path
                   inkscape:connector-curvature="0"
                   id="path278"
                   style="fill:#ffffff;fill-opacity:1;fill-rule:nonzero;stroke:none"
                   d="M 0,0 -49.478,-49.474 V -38.19 L -11.287,0 Z" /></g></g></g></g><g
           id="g286"><g
             id="g288" /><g
             id="g300"><g
               id="g298"
               opacity="0.399994"
               clip-path="url(#clipPath292)"><g
                 id="g296"
                 transform="translate(262.2861,303.1797)"><path
                   inkscape:connector-curvature="0"
                   id="path294"
                   style="fill:#ffffff;fill-opacity:1;fill-rule:nonzero;stroke:none"
                   d="M 0,0 V -11.284 L -38.097,-49.38 h -11.284 z" /></g></g></g></g><g
           transform="translate(165.1611,235.0996)"
           id="g302"><path
             inkscape:connector-curvature="0"
             id="path304"
             style="fill:#cae6fe;fill-opacity:1;fill-rule:nonzero;stroke:none"
             d="m 0,0 h -25.757 c -2.722,0 -4.929,2.207 -4.929,4.929 0,2.722 2.207,4.928 4.929,4.928 H 0 C 2.722,9.857 4.929,7.651 4.929,4.929 4.929,2.207 2.722,0 0,0" /></g><g
           transform="translate(211.3857,235.0996)"
           id="g306"><path
             inkscape:connector-curvature="0"
             id="path308"
             style="fill:#cae6fe;fill-opacity:1;fill-rule:nonzero;stroke:none"
             d="m 0,0 h -25.757 c -2.722,0 -4.929,2.207 -4.929,4.929 0,2.722 2.207,4.928 4.929,4.928 H 0 C 2.722,9.857 4.929,7.651 4.929,4.929 4.929,2.207 2.722,0 0,0" /></g><g
           transform="translate(257.6104,235.0996)"
           id="g310"><path
             inkscape:connector-curvature="0"
             id="path312"
             style="fill:#cae6fe;fill-opacity:1;fill-rule:nonzero;stroke:none"
             d="m 0,0 h -25.756 c -2.723,0 -4.93,2.207 -4.93,4.929 0,2.722 2.207,4.928 4.93,4.928 H 0 C 2.723,9.857 4.93,7.651 4.93,4.929 4.93,2.207 2.723,0 0,0" /></g><g
           transform="translate(167.0156,203.8564)"
           id="g314"><path
             inkscape:connector-curvature="0"
             id="path316"
             style="fill:#cae6fe;fill-opacity:1;fill-rule:nonzero;stroke:none"
             d="m 0,0 h -30.954 c -1.526,0 -2.764,1.369 -2.764,3.057 v 14.878 c 0,1.688 1.238,3.056 2.764,3.056 H 0 c 1.527,0 2.765,-1.368 2.765,-3.056 V 3.057 C 2.765,1.369 1.527,0 0,0" /></g><g
           transform="translate(213.9839,203.8564)"
           id="g318"><path
             inkscape:connector-curvature="0"
             id="path320"
             style="fill:#cae6fe;fill-opacity:1;fill-rule:nonzero;stroke:none"
             d="m 0,0 h -30.953 c -1.527,0 -2.765,1.369 -2.765,3.057 v 14.878 c 0,1.688 1.238,3.056 2.765,3.056 H 0 c 1.527,0 2.765,-1.368 2.765,-3.056 V 3.057 C 2.765,1.369 1.527,0 0,0" /></g><g
           transform="translate(260.9521,203.8564)"
           id="g322"><path
             inkscape:connector-curvature="0"
             id="path324"
             style="fill:#cae6fe;fill-opacity:1;fill-rule:nonzero;stroke:none"
             d="m 0,0 h -30.953 c -1.527,0 -2.765,1.369 -2.765,3.057 v 14.878 c 0,1.688 1.238,3.056 2.765,3.056 H 0 c 1.527,0 2.765,-1.368 2.765,-3.056 V 3.057 C 2.765,1.369 1.527,0 0,0" /></g><g
           transform="translate(167.0156,170.8643)"
           id="g326"><path
             inkscape:connector-curvature="0"
             id="path328"
             style="fill:#cae6fe;fill-opacity:1;fill-rule:nonzero;stroke:none"
             d="m 0,0 h -30.954 c -1.526,0 -2.764,1.367 -2.764,3.056 v 14.879 c 0,1.687 1.238,3.055 2.764,3.055 H 0 c 1.527,0 2.765,-1.368 2.765,-3.055 V 3.056 C 2.765,1.367 1.527,0 0,0" /></g><g
           transform="translate(213.9839,170.8643)"
           id="g330"><path
             inkscape:connector-curvature="0"
             id="path332"
             style="fill:#cae6fe;fill-opacity:1;fill-rule:nonzero;stroke:none"
             d="m 0,0 h -30.953 c -1.527,0 -2.765,1.367 -2.765,3.056 v 14.879 c 0,1.687 1.238,3.055 2.765,3.055 H 0 c 1.527,0 2.765,-1.368 2.765,-3.055 V 3.056 C 2.765,1.367 1.527,0 0,0" /></g><g
           transform="translate(260.9521,170.8643)"
           id="g334"><path
             inkscape:connector-curvature="0"
             id="path336"
             style="fill:#cae6fe;fill-opacity:1;fill-rule:nonzero;stroke:none"
             d="m 0,0 h -30.953 c -1.527,0 -2.765,1.367 -2.765,3.056 v 14.879 c 0,1.687 1.238,3.055 2.765,3.055 H 0 c 1.527,0 2.765,-1.368 2.765,-3.055 V 3.056 C 2.765,1.367 1.527,0 0,0" /></g><g
           transform="translate(167.0156,137.8711)"
           id="g338"><path
             inkscape:connector-curvature="0"
             id="path340"
             style="fill:#cae6fe;fill-opacity:1;fill-rule:nonzero;stroke:none"
             d="m 0,0 h -30.954 c -1.526,0 -2.764,1.368 -2.764,3.056 v 14.879 c 0,1.687 1.238,3.055 2.764,3.055 H 0 c 1.527,0 2.765,-1.368 2.765,-3.055 V 3.056 C 2.765,1.368 1.527,0 0,0" /></g><g
           transform="translate(213.9839,137.8711)"
           id="g342"><path
             inkscape:connector-curvature="0"
             id="path344"
             style="fill:#cae6fe;fill-opacity:1;fill-rule:nonzero;stroke:none"
             d="m 0,0 h -30.953 c -1.527,0 -2.765,1.368 -2.765,3.056 v 14.879 c 0,1.687 1.238,3.055 2.765,3.055 H 0 c 1.527,0 2.765,-1.368 2.765,-3.055 V 3.056 C 2.765,1.368 1.527,0 0,0" /></g><g
           transform="translate(260.9521,137.8711)"
           id="g346"><path
             inkscape:connector-curvature="0"
             id="path348"
             style="fill:#cae6fe;fill-opacity:1;fill-rule:nonzero;stroke:none"
             d="m 0,0 h -30.953 c -1.527,0 -2.765,1.368 -2.765,3.056 v 14.879 c 0,1.687 1.238,3.055 2.765,3.055 H 0 c 1.527,0 2.765,-1.368 2.765,-3.055 V 3.056 C 2.765,1.368 1.527,0 0,0" /></g><g
           transform="translate(167.0156,105.5244)"
           id="g350"><path
             inkscape:connector-curvature="0"
             id="path352"
             style="fill:#007ce6;fill-opacity:1;fill-rule:nonzero;stroke:none"
             d="m 0,0 h -30.954 c -1.526,0 -2.764,1.368 -2.764,3.056 v 14.879 c 0,1.687 1.238,3.055 2.764,3.055 H 0 c 1.527,0 2.765,-1.368 2.765,-3.055 V 3.056 C 2.765,1.368 1.527,0 0,0" /></g><g
           transform="translate(213.9839,105.5244)"
           id="g354"><path
             inkscape:connector-curvature="0"
             id="path356"
             style="fill:#61b3ff;fill-opacity:1;fill-rule:nonzero;stroke:none"
             d="m 0,0 h -30.953 c -1.527,0 -2.765,1.368 -2.765,3.056 v 14.879 c 0,1.687 1.238,3.055 2.765,3.055 H 0 c 1.527,0 2.765,-1.368 2.765,-3.055 V 3.056 C 2.765,1.368 1.527,0 0,0" /></g><g
           transform="translate(260.9521,105.5244)"
           id="g358"><path
             inkscape:connector-curvature="0"
             id="path360"
             style="fill:#009ef3;fill-opacity:1;fill-rule:nonzero;stroke:none"
             d="m 0,0 h -30.953 c -1.527,0 -2.765,1.368 -2.765,3.056 v 14.879 c 0,1.687 1.238,3.055 2.765,3.055 H 0 c 1.527,0 2.765,-1.368 2.765,-3.055 V 3.056 C 2.765,1.368 1.527,0 0,0" /></g><g
           transform="translate(420.7275,99.6592)"
           id="g362"><path
             inkscape:connector-curvature="0"
             id="path364"
             style="fill:#fda893;fill-opacity:1;fill-rule:nonzero;stroke:none"
             d="m 0,0 6.609,-8.915 c 0,0 -1.334,-3.887 -6.445,-6.788 l -7.915,10.264 z" /></g><g
           transform="translate(422.084,86.6436)"
           id="g366"><path
             inkscape:connector-curvature="0"
             id="path368"
             style="fill:#007ce6;fill-opacity:1;fill-rule:nonzero;stroke:none"
             d="m 0,0 c 0,0 -3.171,0.732 -4.285,-0.302 -1.115,-1.033 -4.181,-15.379 -6.813,-18.471 -2.632,-3.094 -0.093,-4.829 1.467,-5.503 1.562,-0.675 24.633,20.49 24.633,20.49 0,0 -5.411,7.541 -8.069,9.042 C 4.275,6.758 2.891,1.46 0,0" /></g><g
           transform="translate(421.374,78.6797)"
           id="g370"><path
             inkscape:connector-curvature="0"
             id="path372"
             style="fill:#ffffff;fill-opacity:1;fill-rule:nonzero;stroke:none"
             d="m 0,0 c 0.14,0.055 0.256,0.162 0.314,0.307 0.115,0.281 -0.03,0.598 -0.322,0.709 -0.097,0.037 -2.419,0.901 -4.247,0.523 -2.432,-0.501 -2.99,-2.487 -3.013,-2.571 -0.078,-0.293 0.106,-0.591 0.41,-0.667 0.304,-0.076 0.615,0.099 0.693,0.393 0.016,0.054 0.42,1.416 2.151,1.776 1.491,0.307 3.571,-0.465 3.591,-0.473 C -0.28,-0.057 -0.13,-0.051 0,0" /></g><g
           transform="translate(421.6855,80.9033)"
           id="g374"><path
             inkscape:connector-curvature="0"
             id="path376"
             style="fill:#ffffff;fill-opacity:1;fill-rule:nonzero;stroke:none"
             d="m 0,0 c 0.139,0.055 0.255,0.162 0.313,0.307 0.115,0.281 -0.03,0.598 -0.322,0.71 -0.098,0.037 -2.419,0.901 -4.247,0.523 -2.435,-0.502 -2.99,-2.487 -3.013,-2.572 -0.079,-0.292 0.105,-0.591 0.41,-0.666 0.304,-0.076 0.615,0.099 0.693,0.392 0.016,0.054 0.421,1.417 2.151,1.776 1.496,0.308 3.571,-0.464 3.591,-0.473 C -0.282,-0.057 -0.131,-0.051 0,0" /></g><g
           transform="translate(420.4053,76.3184)"
           id="g378"><path
             inkscape:connector-curvature="0"
             id="path380"
             style="fill:#ffffff;fill-opacity:1;fill-rule:nonzero;stroke:none"
             d="m 0,0 c 0.139,0.055 0.255,0.161 0.314,0.306 0.115,0.282 -0.03,0.599 -0.323,0.71 -0.097,0.037 -2.419,0.901 -4.247,0.523 -2.434,-0.501 -2.99,-2.486 -3.013,-2.571 -0.078,-0.292 0.106,-0.591 0.41,-0.667 0.304,-0.075 0.615,0.1 0.693,0.393 0.016,0.054 0.421,1.416 2.151,1.775 1.496,0.309 3.571,-0.464 3.591,-0.472 C -0.281,-0.057 -0.131,-0.052 0,0" /></g><g
           transform="translate(380.4189,219.5654)"
           id="g382"><path
             inkscape:connector-curvature="0"
             id="path384"
             style="fill:#16162f;fill-opacity:1;fill-rule:nonzero;stroke:none"
             d="m 0,0 4.81,-58.527 c 0,0 7.84,-9.794 13.477,-20.643 4.731,-9.106 25.013,-41.739 25.013,-41.739 l -10.244,-7.993 -51.106,60.074 -10.002,70.067 z" /></g><g
           transform="translate(367.1729,84.7744)"
           id="g386"><path
             inkscape:connector-curvature="0"
             id="path388"
             style="fill:#fda893;fill-opacity:1;fill-rule:nonzero;stroke:none"
             d="m 0,0 -0.802,-11.349 c 0,0 -3.603,-2.268 -9.473,-1.346 l 0.689,13.26 z" /></g><g
           transform="translate(358.9287,73.7139)"
           id="g390"><path
             inkscape:connector-curvature="0"
             id="path392"
             style="fill:#007ce6;fill-opacity:1;fill-rule:nonzero;stroke:none"
             d="m 0,0 c 0,0 -2.048,2.717 -3.661,2.591 -1.613,-0.127 -14.004,-10.1 -18.265,-10.943 -4.26,-0.842 -3.413,-3.978 -2.622,-5.579 0.792,-1.6 33.873,10e-4 33.873,10e-4 0,0 1.002,10.709 -0.101,13.73 C 8.119,2.819 3.341,-0.696 0,0" /></g><g
           transform="translate(352.6113,67.7627)"
           id="g394"><path
             inkscape:connector-curvature="0"
             id="path396"
             style="fill:#ffffff;fill-opacity:1;fill-rule:nonzero;stroke:none"
             d="m 0,0 c 0.142,-0.049 0.303,-0.042 0.446,0.031 0.28,0.145 0.39,0.488 0.245,0.767 -0.047,0.094 -1.196,2.3 -2.83,3.211 C -4.312,5.224 -6.097,4.042 -6.171,3.991 -6.432,3.814 -6.499,3.461 -6.322,3.2 -6.146,2.94 -5.792,2.873 -5.531,3.05 -5.482,3.082 -4.241,3.877 -2.693,3.015 -1.362,2.272 -0.33,0.296 -0.32,0.276 -0.25,0.142 -0.134,0.046 0,0" /></g><g
           transform="translate(354.374,69.292)"
           id="g398"><path
             inkscape:connector-curvature="0"
             id="path400"
             style="fill:#ffffff;fill-opacity:1;fill-rule:nonzero;stroke:none"
             d="M 0,0 C 0.142,-0.049 0.303,-0.042 0.446,0.032 0.726,0.177 0.836,0.52 0.692,0.799 0.644,0.893 -0.505,3.099 -2.139,4.01 -4.313,5.226 -6.096,4.043 -6.171,3.992 -6.431,3.815 -6.499,3.462 -6.322,3.201 -6.146,2.941 -5.791,2.873 -5.531,3.051 -5.482,3.083 -4.24,3.879 -2.693,3.016 -1.356,2.27 -0.33,0.298 -0.32,0.277 -0.25,0.143 -0.134,0.047 0,0" /></g><g
           transform="translate(350.2578,66.5596)"
           id="g402"><path
             inkscape:connector-curvature="0"
             id="path404"
             style="fill:#ffffff;fill-opacity:1;fill-rule:nonzero;stroke:none"
             d="M 0,0 C 0.143,-0.049 0.303,-0.042 0.447,0.032 0.727,0.176 0.837,0.52 0.692,0.799 0.645,0.893 -0.504,3.098 -2.138,4.01 -4.312,5.226 -6.096,4.043 -6.171,3.992 -6.431,3.815 -6.498,3.461 -6.321,3.201 -6.146,2.941 -5.791,2.873 -5.53,3.051 -5.481,3.082 -4.239,3.878 -2.692,3.016 -1.356,2.27 -0.33,0.298 -0.319,0.277 -0.25,0.142 -0.133,0.046 0,0" /></g><g
           transform="translate(412.3223,217.1475)"
           id="g406"><path
             inkscape:connector-curvature="0"
             id="path408"
             style="fill:#2a3554;fill-opacity:1;fill-rule:nonzero;stroke:none"
             d="m 0,0 c 0,0 -13.266,-43.34 -29.76,-66.506 0,0 -2.909,-22.843 -7.254,-34.944 -1.908,-5.293 -7.16,-36.968 -7.16,-36.968 l -1.955,0.327 -1.159,0.202 -8.677,1.457 5.647,75.546 20.543,59.288 24.796,1.336 1.319,0.064 z" /></g><g
           transform="translate(408.6621,216.9492)"
           id="g410"><path
             inkscape:connector-curvature="0"
             id="path412"
             style="fill:#16162f;fill-opacity:1;fill-rule:nonzero;stroke:none"
             d="m 0,0 -28.673,-66.284 c -0.014,-0.082 -4.472,-18.152 -7.044,-30.87 -2.304,-11.314 -5.73,-31.03 -6.752,-40.739 l -1.159,0.203 c 1.036,9.803 4.396,29.191 6.753,40.774 2.584,12.729 7.055,30.823 7.094,31.01 l 28.463,65.843 z" /></g><g
           transform="translate(346.793,316.2085)"
           id="g414"><path
             inkscape:connector-curvature="0"
             id="path416"
             style="fill:#009ef3;fill-opacity:1;fill-rule:nonzero;stroke:none"
             d="m 0,0 -13.274,-26.214 14.035,1.219 c 0,0 1.338,15.867 -0.761,24.995" /></g><g
           transform="translate(413.5801,215.6504)"
           id="g418"><path
             inkscape:connector-curvature="0"
             id="path420"
             style="fill:#61b3ff;fill-opacity:1;fill-rule:nonzero;stroke:none"
             d="m 0,0 c -6.99,-2.561 -14.04,-4.44 -21.15,-5.641 -0.33,-0.049 -0.65,-0.109 -0.97,-0.16 -0.17,-0.029 -0.35,-0.05 -0.52,-0.08 -0.381,-0.059 -0.77,-0.119 -1.14,-0.17 -0.43,-0.059 -0.85,-0.119 -1.281,-0.179 -4.849,-0.651 -9.729,-0.98 -14.639,-1.01 -1,0 -1.98,0.01 -2.98,0.03 h -0.19 c -0.25,0.01 -0.5,0.01 -0.76,0.02 -0.15,0.009 -0.3,0.009 -0.45,0.02 -5.731,0.18 -11.5,0.8 -17.3,1.829 -0.13,1.28 -0.3,3.181 -0.51,5.57 -0.04,0.451 -0.08,0.911 -0.11,1.39 -0.3,3.421 -0.65,7.691 -1.03,12.511 -0.031,0.41 -0.06,0.83 -0.1,1.25 -0.25,3.21 -0.52,6.64 -0.78,10.229 -0.03,0.42 -0.07,0.83 -0.1,1.25 -0.27,3.681 -0.551,7.5 -0.82,11.381 -0.17,2.369 -0.33,4.76 -0.49,7.15 -0.16,2.43 -0.32,4.86 -0.47,7.27 -0.03,0.529 -0.07,1.049 -0.1,1.58 -1.421,22.83 -2.28,43.85 -0.9,46.32 0.96,1.71 3.32,3.83 6.12,6 0.35,0.27 0.69,0.53 1.05,0.799 1.2,0.901 11.21,5.301 12.46,6.191 l 10.84,1.71 c 0.07,-0.04 10.799,-2.651 10.88,-2.68 0.47,-0.221 0.94,-0.431 1.41,-0.661 4.06,-1.889 8.07,-3.899 10.45,-5.739 0.34,-0.261 0.65,-0.52 0.92,-0.781 0.22,-0.21 0.41,-0.409 0.57,-0.609 0.14,-0.181 0.3,-0.49 0.46,-0.931 1.74,-4.679 4.069,-23.46 6.2,-43.94 0.05,-0.489 0.09,-0.98 0.15,-1.469 0.05,-0.491 0.1,-0.98 0.15,-1.471 0.05,-0.5 0.1,-0.989 0.15,-1.479 0.06,-0.65 0.13,-1.3 0.2,-1.96 0.04,-0.44 0.09,-0.9 0.13,-1.34 0.02,-0.23 0.04,-0.45 0.07,-0.67 0.019,-0.16 0.03,-0.33 0.05,-0.49 0.09,-0.95 0.18,-1.9 0.27,-2.851 0.09,-0.819 0.17,-1.629 0.25,-2.449 0.77,-8.051 1.489,-15.921 2.1,-22.871 0.18,-1.97 0.349,-3.859 0.5,-5.659 0.03,-0.41 0.07,-0.83 0.099,-1.231 C -0.68,8.569 -0.21,2.819 0,0" /></g><g
           transform="translate(411.6699,238.5195)"
           id="g422"><path
             inkscape:connector-curvature="0"
             id="path424"
             style="fill:#009ef3;fill-opacity:1;fill-rule:nonzero;stroke:none"
             d="m 0,0 c -9.07,-13.1 -20.46,-22.5 -20.46,-22.5 l -2.627,18.823 c 3.667,7.407 12.181,23.477 19.717,39.258 0.05,-0.491 0.1,-0.98 0.15,-1.471 0.05,-0.5 0.1,-0.989 0.15,-1.48 0.06,-0.65 0.131,-1.299 0.2,-1.96 0.04,-0.44 0.09,-0.899 0.13,-1.339 0.02,-0.23 0.04,-0.451 0.07,-0.67 0.02,-0.161 0.03,-0.33 0.05,-0.491 0.09,-0.949 0.181,-1.899 0.27,-2.85 0.09,-0.82 0.17,-1.63 0.25,-2.449 C -1.33,14.82 -0.61,6.95 0,0" /></g><g
           transform="translate(364.8428,297.0049)"
           id="g426"><path
             inkscape:connector-curvature="0"
             id="path428"
             style="fill:#009ef3;fill-opacity:1;fill-rule:nonzero;stroke:none"
             d="m 0,0 -12.558,-0.36 c 0,0 0.852,-15.206 7.46,-14.161 C 1.512,-13.477 0,0 0,0" /></g><g
           transform="translate(398.9687,232.3828)"
           id="g430"><path
             inkscape:connector-curvature="0"
             id="path432"
             style="fill:#009ef3;fill-opacity:1;fill-rule:nonzero;stroke:none"
             d="m 0,0 c 0,0 -0.002,0 -0.002,-0.001 -11.786,-0.972 -22.308,3.516 -29.06,7.451 -7.3,4.256 -11.897,8.813 -11.943,8.858 -0.223,0.222 -0.223,0.583 0,0.804 0.222,0.223 0.582,0.223 0.805,0.001 0.044,-0.044 4.556,-4.513 11.739,-8.696 6.605,-3.845 16.887,-8.23 28.365,-7.283 C 0.218,1.159 0.492,0.927 0.518,0.613 0.544,0.301 0.312,0.026 0,0" /></g><g
           transform="translate(387.0391,227.3125)"
           id="g434"><path
             inkscape:connector-curvature="0"
             id="path436"
             style="fill:#009ef3;fill-opacity:1;fill-rule:nonzero;stroke:none"
             d="m 0,0 c -10.224,-0.889 -20.924,4.052 -21.411,4.279 -0.284,0.134 -0.407,0.472 -0.274,0.757 0.133,0.284 0.472,0.406 0.756,0.275 C -20.803,5.251 -8.212,-0.557 2.328,1.468 2.641,1.531 2.936,1.325 2.995,1.017 3.054,0.708 2.852,0.409 2.543,0.351 1.703,0.189 0.853,0.074 0,0" /></g><g
           transform="translate(368.8105,244.4082)"
           id="g438"><path
             inkscape:connector-curvature="0"
             id="path440"
             style="fill:#ffffff;fill-opacity:1;fill-rule:nonzero;stroke:none"
             d="M 0,0 6.812,-16.101 13.007,-0.62 5.594,63.984 5.312,66.417 2.364,66.575 2.247,63.253 Z" /></g><g
           transform="translate(371.0576,307.6611)"
           id="g442"><path
             inkscape:connector-curvature="0"
             id="path444"
             style="fill:#ededed;fill-opacity:1;fill-rule:nonzero;stroke:none"
             d="M 0,0 1.552,-1.621 3.347,0.731 3.065,3.165 0.117,3.322 Z" /></g><g
           transform="translate(377.5566,314.5937)"
           id="g446"><path
             inkscape:connector-curvature="0"
             id="path448"
             style="fill:#ffffff;fill-opacity:1;fill-rule:nonzero;stroke:none"
             d="m 0,0 -5.223,-6.083 -4.294,6.579 3.148,6.62 z" /></g><g
           transform="translate(378.8311,331.6558)"
           id="g450"><path
             inkscape:connector-curvature="0"
             id="path452"
             style="fill:#009ef3;fill-opacity:1;fill-rule:nonzero;stroke:none"
             d="M 0,0 1.744,-1.027 C 2.224,-1.309 2.693,-1.608 3.141,-1.939 4.487,-2.936 4.998,-3.66 4.841,-5.638 4.816,-5.942 4.774,-6.209 4.719,-6.422 L 2.9,-21.726 -7.644,-9.946 c 0,0 6.645,3.036 7.644,9.946" /></g><g
           transform="translate(366.4209,329.9668)"
           id="g454"><path
             inkscape:connector-curvature="0"
             id="path456"
             style="fill:#009ef3;fill-opacity:1;fill-rule:nonzero;stroke:none"
             d="m 0,0 c 0,0 -3.977,-4.479 -2.278,-9.263 l 2.697,-8.14 4.348,9.146 c 0,0 -3.85,1.902 -4.767,8.257" /></g><g
           transform="translate(386.1602,359.8066)"
           id="g458"><path
             inkscape:connector-curvature="0"
             id="path460"
             style="fill:#1d3062;fill-opacity:1;fill-rule:nonzero;stroke:none"
             d="m 0,0 c 0.823,-9.472 -4.441,-16.505 -13.912,-17.328 -9.472,-0.823 -16.682,5.621 -17.505,15.092 -0.823,9.471 4.162,17.134 13.633,17.957 C -6.425,16.708 -0.823,9.471 0,0" /></g><g
           transform="translate(385.5752,354.0508)"
           id="g462"><path
             inkscape:connector-curvature="0"
             id="path464"
             style="fill:#1d3062;fill-opacity:1;fill-rule:nonzero;stroke:none"
             d="m 0,0 c 0,0 1.861,2.67 1.037,9.039 -0.824,6.369 -3.136,7.998 -3.136,7.998 0,0 2.294,4.81 -0.312,5.939 -2.607,1.129 -4.643,-0.403 -4.643,-0.403 0,0 1.572,2.984 -0.28,3.23 -1.853,0.245 -4.321,-1.664 -4.321,-1.664 0,0 -13.349,3.721 -17.141,0.545 -3.791,-3.178 -0.365,-11.36 0.782,-12.212 z" /></g><g
           transform="translate(384.3867,355.5435)"
           id="g466"><path
             inkscape:connector-curvature="0"
             id="path468"
             style="fill:#fb876b;fill-opacity:1;fill-rule:nonzero;stroke:none"
             d="M 0,0 C 0,0 2.326,3.737 4.535,1.006 6.744,-1.725 4.723,-10.535 -0.25,-8.859 Z" /></g><g
           transform="translate(384.9521,349.4233)"
           id="g470"><path
             inkscape:connector-curvature="0"
             id="path472"
             style="fill:#d45c48;fill-opacity:1;fill-rule:nonzero;stroke:none"
             d="M 0,0 C 0.178,0.015 0.33,0.146 0.364,0.33 0.877,3.04 3.524,4.35 3.551,4.363 3.753,4.461 3.838,4.704 3.74,4.906 3.643,5.107 3.4,5.192 3.198,5.095 3.074,5.036 0.156,3.601 -0.435,0.48 -0.476,0.26 -0.331,0.047 -0.11,0.005 -0.073,-0.001 -0.036,-0.003 0,0" /></g><g
           transform="translate(387.6035,350.9961)"
           id="g474"><path
             inkscape:connector-curvature="0"
             id="path476"
             style="fill:#d45c48;fill-opacity:1;fill-rule:nonzero;stroke:none"
             d="M 0,0 C 0.075,0.007 0.149,0.034 0.213,0.083 0.391,0.221 0.423,0.477 0.285,0.654 0.263,0.684 -0.286,1.381 -1.341,1.747 -1.552,1.821 -1.783,1.708 -1.857,1.496 -1.931,1.284 -1.818,1.052 -1.606,0.979 -0.792,0.696 -0.361,0.162 -0.357,0.156 -0.27,0.042 -0.134,-0.011 0,0" /></g><g
           transform="translate(357.2676,353.187)"
           id="g478"><path
             inkscape:connector-curvature="0"
             id="path480"
             style="fill:#fb876b;fill-opacity:1;fill-rule:nonzero;stroke:none"
             d="m 0,0 c 0,0 -2.936,3.28 -4.641,0.208 -1.704,-3.071 1.807,-11.399 6.415,-8.892 z" /></g><g
           transform="translate(357.7666,347.061)"
           id="g482"><path
             inkscape:connector-curvature="0"
             id="path484"
             style="fill:#d45c48;fill-opacity:1;fill-rule:nonzero;stroke:none"
             d="m 0,0 c -0.178,-0.016 -0.35,0.087 -0.416,0.262 -0.972,2.581 -3.806,3.415 -3.834,3.423 -0.216,0.062 -0.342,0.286 -0.28,0.502 0.06,0.215 0.285,0.341 0.501,0.28 C -3.897,4.43 -0.775,3.52 0.345,0.548 0.424,0.338 0.317,0.104 0.107,0.024 0.072,0.011 0.036,0.003 0,0" /></g><g
           transform="translate(354.8838,348.1533)"
           id="g486"><path
             inkscape:connector-curvature="0"
             id="path488"
             style="fill:#d45c48;fill-opacity:1;fill-rule:nonzero;stroke:none"
             d="M 0,0 C -0.075,-0.007 -0.153,0.007 -0.225,0.045 -0.423,0.15 -0.499,0.396 -0.395,0.594 -0.377,0.627 0.044,1.409 1.019,1.951 1.214,2.061 1.462,1.99 1.571,1.793 1.681,1.597 1.609,1.35 1.414,1.241 0.66,0.822 0.328,0.221 0.324,0.215 0.258,0.088 0.133,0.011 0,0" /></g><g
           transform="translate(365.7432,337.7632)"
           id="g490"><path
             inkscape:connector-curvature="0"
             id="path492"
             style="fill:#fba691;fill-opacity:1;fill-rule:nonzero;stroke:none"
             d="m 0,0 0.741,-8.522 c 0,0 -0.455,-8.077 6.027,-7.465 3.444,0.325 6.513,7.649 6.513,7.649 l -0.766,8.822 z" /></g><g
           transform="translate(365.7432,337.7632)"
           id="g494"><path
             inkscape:connector-curvature="0"
             id="path496"
             style="fill:#fb876b;fill-opacity:1;fill-rule:nonzero;stroke:none"
             d="M 0,0 0.329,-3.781 C 2.857,-6.14 7.009,-6.423 12.992,-5.002 L 12.515,0.484 Z" /></g><g
           transform="translate(354.8574,358.8677)"
           id="g498"><path
             inkscape:connector-curvature="0"
             id="path500"
             style="fill:#fba691;fill-opacity:1;fill-rule:nonzero;stroke:none"
             d="m 0,0 c 0.445,-3.298 1.121,-7.412 2.041,-10.669 0.23,-0.812 0.475,-1.574 0.733,-2.253 2.339,-6.123 7.761,-16.501 19.929,-10.925 5.374,2.462 7.408,8.863 8.008,15.245 0.406,4.335 0.149,8.657 -0.175,11.732 -0.334,3.141 -2.301,5.866 -5.172,7.179 C 17.587,13.867 9.901,11.62 4.924,9.193 1.469,7.51 -0.514,3.802 0,0" /></g><g
           transform="translate(375.4951,354.2666)"
           id="g502"><path
             inkscape:connector-curvature="0"
             id="path504"
             style="fill:#1d3062;fill-opacity:1;fill-rule:nonzero;stroke:none"
             d="m 0,0 c 0.079,-0.91 0.611,-1.606 1.189,-1.556 0.58,0.05 0.984,0.828 0.905,1.738 C 2.015,1.092 1.482,1.789 0.903,1.738 0.325,1.688 -0.079,0.91 0,0" /></g><g
           transform="translate(363.3457,353.2109)"
           id="g506"><path
             inkscape:connector-curvature="0"
             id="path508"
             style="fill:#1d3062;fill-opacity:1;fill-rule:nonzero;stroke:none"
             d="m 0,0 c 0.079,-0.91 0.612,-1.606 1.19,-1.556 0.579,0.05 0.984,0.828 0.905,1.738 C 2.016,1.092 1.482,1.789 0.904,1.738 0.326,1.688 -0.078,0.91 0,0" /></g><g
           transform="translate(361.0557,358.7065)"
           id="g510"><path
             inkscape:connector-curvature="0"
             id="path512"
             style="fill:#1d3062;fill-opacity:1;fill-rule:nonzero;stroke:none"
             d="M 0,0 C 0,0 3.19,1.593 5.83,0.715 L 5.698,-0.722 c 0,0 -3.761,-0.009 -5.576,-0.935 C -0.094,-1.126 -0.166,-0.578 0,0" /></g><g
           transform="translate(380.3057,360.3794)"
           id="g514"><path
             inkscape:connector-curvature="0"
             id="path516"
             style="fill:#1d3062;fill-opacity:1;fill-rule:nonzero;stroke:none"
             d="m 0,0 c 0,0 -3.417,1.019 -5.866,-0.301 l 0.378,-1.393 c 0,0 3.706,0.64 5.653,0.041 C 0.286,-1.094 0.264,-0.541 0,0" /></g><g
           transform="translate(371.0801,346.688)"
           id="g518"><path
             inkscape:connector-curvature="0"
             id="path520"
             style="fill:#fb876b;fill-opacity:1;fill-rule:nonzero;stroke:none"
             d="M 0,0 C 0.686,-0.024 1.374,0.219 1.481,0.258 1.691,0.335 1.799,0.569 1.722,0.779 1.645,0.99 1.41,1.098 1.2,1.021 0.828,0.885 -0.061,0.682 -0.434,0.924 -0.506,0.971 -0.604,1.062 -0.62,1.309 -0.718,2.732 -0.163,7.472 -0.157,7.52 -0.131,7.743 -0.29,7.945 -0.514,7.971 -0.737,7.998 -0.937,7.838 -0.964,7.615 -0.987,7.417 -1.533,2.751 -1.432,1.254 -1.393,0.69 -1.107,0.392 -0.875,0.241 -0.621,0.077 -0.311,0.011 0,0" /></g><g
           transform="translate(376.8262,344.7402)"
           id="g522"><path
             inkscape:connector-curvature="0"
             id="path524"
             style="fill:#ffffff;fill-opacity:1;fill-rule:nonzero;stroke:none"
             d="m 0,0 c -0.186,-1.693 -1.02,-4.852 -4.724,-5.173 -3.714,-0.323 -4.999,2.385 -5.524,4.283 z" /></g><g
           transform="translate(372.6309,337.085)"
           id="g526"><path
             inkscape:connector-curvature="0"
             id="path528"
             style="fill:#fb876b;fill-opacity:1;fill-rule:nonzero;stroke:none"
             d="m 0,0 c -1.048,-0.091 -1.982,0.362 -2.021,0.381 -0.202,0.1 -0.285,0.343 -0.185,0.545 0.099,0.201 0.342,0.284 0.544,0.185 C -1.655,1.107 -0.887,0.738 -0.07,0.81 0.679,0.875 1.358,1.367 1.365,1.372 1.545,1.505 1.8,1.469 1.934,1.289 2.067,1.108 2.03,0.854 1.851,0.72 1.815,0.694 0.988,0.086 0,0" /></g><g
           transform="translate(355.7998,352.9873)"
           id="g530"><path
             inkscape:connector-curvature="0"
             id="path532"
             style="fill:#1d3062;fill-opacity:1;fill-rule:nonzero;stroke:none"
             d="m 0,0 1.835,0.159 c -0.363,1.824 0.113,4.109 0.537,5.64 0.961,3.472 -1.836,4.724 0.176,6.595 2.011,1.876 7.444,1.62 11.169,2.064 3.747,0.449 9.792,0.921 11.287,0.708 1.499,-0.208 0.905,-2.718 0.531,-4.656 -0.379,-1.933 2.147,-3.819 2.71,-5.74 0.161,-0.551 0.21,-1.387 0.199,-2.298 l 1.529,0.132 C 29.948,5 29.782,7.218 29.594,9.011 29.26,12.151 27.293,14.876 24.422,16.189 16.645,19.747 8.959,17.5 3.981,15.074 0.526,13.391 -1.456,9.682 -0.942,5.88 -0.698,4.074 -0.385,2.021 0,0" /></g><g
           transform="translate(364.0332,356.1831)"
           id="g534"><path
             inkscape:connector-curvature="0"
             id="path536"
             style="fill:#ffffff;fill-opacity:1;fill-rule:nonzero;stroke:none"
             d="m 0,0 c -2.191,-0.19 -3.819,-2.128 -3.629,-4.319 0.191,-2.192 2.128,-3.82 4.319,-3.629 2.192,0.19 3.82,2.128 3.629,4.319 C 4.129,-1.437 2.191,0.19 0,0 m 0.755,-8.682 c -2.597,-0.226 -4.892,1.703 -5.117,4.299 -0.226,2.596 1.702,4.891 4.299,5.117 2.595,0.225 4.891,-1.703 5.117,-4.299 0.225,-2.596 -1.703,-4.892 -4.299,-5.117" /></g><g
           transform="translate(376.9023,357.3013)"
           id="g538"><path
             inkscape:connector-curvature="0"
             id="path540"
             style="fill:#ffffff;fill-opacity:1;fill-rule:nonzero;stroke:none"
             d="m 0,0 c -2.191,-0.19 -3.819,-2.128 -3.629,-4.319 0.191,-2.192 2.128,-3.82 4.319,-3.629 2.192,0.19 3.82,2.128 3.629,4.319 C 4.129,-1.437 2.191,0.19 0,0 m 0.754,-8.682 c -2.596,-0.226 -4.892,1.703 -5.117,4.299 -0.226,2.596 1.703,4.891 4.3,5.117 2.595,0.225 4.89,-1.703 5.116,-4.299 0.225,-2.596 -1.702,-4.892 -4.299,-5.117" /></g><g
           transform="translate(360.334,353.3853)"
           id="g542"><path
             inkscape:connector-curvature="0"
             id="path544"
             style="fill:#ffffff;fill-opacity:1;fill-rule:nonzero;stroke:none"
             d="M 0,0 C -0.093,-0.008 -0.189,0.02 -0.268,0.084 -0.29,0.103 -2.609,1.992 -5.358,1.094 -5.551,1.03 -5.76,1.136 -5.822,1.33 -5.886,1.523 -5.78,1.731 -5.587,1.794 -2.443,2.821 0.098,0.739 0.205,0.65 0.36,0.519 0.382,0.287 0.251,0.131 0.186,0.053 0.095,0.008 0,0" /></g><g
           transform="translate(381.1152,355.1909)"
           id="g546"><path
             inkscape:connector-curvature="0"
             id="path548"
             style="fill:#ffffff;fill-opacity:1;fill-rule:nonzero;stroke:none"
             d="M 0,0 C -0.12,-0.01 -0.243,0.038 -0.322,0.14 -0.448,0.3 -0.42,0.531 -0.26,0.657 -0.128,0.761 3.017,3.199 5.893,2.979 6.095,2.963 6.247,2.786 6.231,2.583 6.216,2.381 6.04,2.229 5.836,2.244 3.248,2.443 0.225,0.101 0.194,0.077 0.137,0.032 0.068,0.006 0,0" /></g><g
           transform="translate(372.7061,353.998)"
           id="g550"><path
             inkscape:connector-curvature="0"
             id="path552"
             style="fill:#ffffff;fill-opacity:1;fill-rule:nonzero;stroke:none"
             d="M 0,0 C -0.009,0.011 -0.983,1.114 -2.13,1.015 -3.265,0.916 -3.95,-0.33 -3.958,-0.342 l -0.648,0.347 c 0.035,0.066 0.876,1.61 2.413,1.744 1.525,0.132 2.702,-1.21 2.752,-1.268 z" /></g><g
           transform="translate(401.4238,293.1924)"
           id="g554"><path
             inkscape:connector-curvature="0"
             id="path556"
             style="fill:#007ce6;fill-opacity:1;fill-rule:nonzero;stroke:none"
             d="m 0,0 -5.31,-72.573 c -0.238,-3.263 -3.08,-5.715 -6.343,-5.477 l -123.246,9.016 c -1.47,0.107 -2.779,0.746 -3.747,1.708 -1.18,1.176 -1.862,2.842 -1.73,4.634 l 5.309,72.572 c 0.239,3.264 3.078,5.716 6.34,5.477 L -5.479,6.341 C -2.217,6.103 0.238,3.263 0,0" /></g><g
           transform="translate(400.7637,284.1792)"
           id="g558"><path
             inkscape:connector-curvature="0"
             id="path560"
             style="fill:#1d3062;fill-opacity:1;fill-rule:nonzero;stroke:none"
             d="m 0,0 -1.177,-16.085 -135.066,9.88 1.177,16.085 z" /></g><g
           transform="translate(386.7217,226.3271)"
           id="g562"><path
             inkscape:connector-curvature="0"
             id="path564"
             style="fill:#61b3ff;fill-opacity:1;fill-rule:nonzero;stroke:none"
             d="m 0,0 -31.77,2.324 0.814,11.13 31.77,-2.324 z" /></g><g
           transform="translate(280.5752,257.6177)"
           id="g566"><path
             inkscape:connector-curvature="0"
             id="path568"
             style="fill:#61b3ff;fill-opacity:1;fill-rule:nonzero;stroke:none"
             d="m 0,0 -8.904,0.651 c -0.391,0.029 -0.685,0.37 -0.657,0.761 l 0.341,4.653 c 0.029,0.392 0.369,0.686 0.76,0.657 L 0.443,6.071 C 0.835,6.042 1.129,5.702 1.101,5.311 L 0.76,0.657 C 0.731,0.266 0.391,-0.028 0,0" /></g><g
           transform="translate(298.7529,256.2881)"
           id="g570"><path
             inkscape:connector-curvature="0"
             id="path572"
             style="fill:#61b3ff;fill-opacity:1;fill-rule:nonzero;stroke:none"
             d="M 0,0 -8.903,0.651 C -9.295,0.68 -9.589,1.021 -9.56,1.412 l 0.34,4.653 c 0.03,0.392 0.369,0.685 0.761,0.657 L 0.444,6.071 C 0.835,6.042 1.129,5.702 1.101,5.311 L 0.76,0.656 C 0.731,0.265 0.392,-0.029 0,0" /></g><g
           transform="translate(316.9316,254.958)"
           id="g574"><path
             inkscape:connector-curvature="0"
             id="path576"
             style="fill:#61b3ff;fill-opacity:1;fill-rule:nonzero;stroke:none"
             d="m 0,0 -8.904,0.651 c -0.391,0.029 -0.685,0.37 -0.657,0.761 l 0.341,4.654 c 0.029,0.391 0.369,0.685 0.76,0.656 L 0.444,6.071 C 0.835,6.042 1.129,5.702 1.101,5.311 L 0.76,0.657 C 0.731,0.266 0.391,-0.028 0,0" /></g><g
           transform="translate(335.1094,253.6284)"
           id="g578"><path
             inkscape:connector-curvature="0"
             id="path580"
             style="fill:#61b3ff;fill-opacity:1;fill-rule:nonzero;stroke:none"
             d="M 0,0 -8.903,0.651 C -9.295,0.68 -9.589,1.02 -9.56,1.412 l 0.34,4.653 c 0.03,0.392 0.369,0.685 0.761,0.657 L 0.444,6.071 C 0.836,6.042 1.13,5.702 1.101,5.311 L 0.76,0.656 C 0.731,0.265 0.392,-0.029 0,0" /></g><g
           transform="translate(353.2881,252.2983)"
           id="g582"><path
             inkscape:connector-curvature="0"
             id="path584"
             style="fill:#61b3ff;fill-opacity:1;fill-rule:nonzero;stroke:none"
             d="m 0,0 -8.903,0.652 c -0.392,0.028 -0.686,0.369 -0.658,0.76 l 0.341,4.654 c 0.029,0.391 0.369,0.685 0.76,0.657 L 0.444,6.071 C 0.835,6.042 1.129,5.702 1.101,5.311 L 0.76,0.657 C 0.731,0.266 0.391,-0.028 0,0" /></g><g
           transform="translate(371.4658,250.9687)"
           id="g586"><path
             inkscape:connector-curvature="0"
             id="path588"
             style="fill:#61b3ff;fill-opacity:1;fill-rule:nonzero;stroke:none"
             d="M 0,0 -8.903,0.651 C -9.294,0.68 -9.588,1.02 -9.56,1.412 l 0.341,4.653 c 0.029,0.392 0.368,0.686 0.76,0.657 L 0.444,6.071 C 0.836,6.042 1.13,5.702 1.101,5.311 L 0.761,0.657 C 0.731,0.266 0.392,-0.028 0,0" /></g><g
           transform="translate(389.6445,249.6392)"
           id="g590"><path
             inkscape:connector-curvature="0"
             id="path592"
             style="fill:#61b3ff;fill-opacity:1;fill-rule:nonzero;stroke:none"
             d="M 0,0 -8.903,0.651 C -9.295,0.68 -9.589,1.02 -9.561,1.411 l 0.341,4.654 c 0.029,0.392 0.369,0.685 0.76,0.657 L 0.444,6.071 C 0.835,6.042 1.129,5.702 1.101,5.311 L 0.76,0.656 C 0.731,0.265 0.391,-0.029 0,0" /></g><g
           transform="translate(401.3867,292.7026)"
           id="g594"><path
             inkscape:connector-curvature="0"
             id="path596"
             style="fill:#61b3ff;fill-opacity:1;fill-rule:nonzero;stroke:none"
             d="m 0,0 -0.226,-3.084 -135.066,9.88 0.226,3.084 z" /></g><g
           transform="translate(285.0078,232.1748)"
           id="g598"><path
             inkscape:connector-curvature="0"
             id="path600"
             style="fill:#61b3ff;fill-opacity:1;fill-rule:nonzero;stroke:none"
             d="m 0,0 -13.567,0.992 c -1.273,0.093 -2.23,1.201 -2.137,2.475 l 0.993,13.566 c 0.093,1.274 1.2,2.231 2.474,2.137 L 1.33,18.178 C 2.604,18.084 3.56,16.977 3.467,15.703 L 2.475,2.137 C 2.381,0.863 1.273,-0.094 0,0" /></g><g
           transform="translate(349.2002,232.1494)"
           id="g602"><path
             inkscape:connector-curvature="0"
             id="path604"
             style="fill:#61b3ff;fill-opacity:1;fill-rule:nonzero;stroke:none"
             d="m 0,0 -55.572,4.065 c -0.905,0.066 -1.584,0.853 -1.519,1.758 l 0.127,1.732 c 0.067,0.905 0.854,1.585 1.759,1.518 L 0.367,5.008 C 1.271,4.941 1.951,4.154 1.886,3.25 L 1.759,1.518 C 1.692,0.613 0.905,-0.066 0,0" /></g><g
           id="g606"><g
             id="g608" /><g
             id="g620"><g
               id="g618"
               opacity="0.199997"
               clip-path="url(#clipPath612)"><g
                 id="g616"
                 transform="translate(351.8125,302.7622)"><path
                   inkscape:connector-curvature="0"
                   id="path614"
                   style="fill:#ffffff;fill-opacity:1;fill-rule:nonzero;stroke:none"
                   d="m 0,0 -89.034,-76.896 c -1.181,1.176 -1.862,2.842 -1.731,4.634 l 1.863,25.46 56.9,49.143 z" /></g></g></g></g><g
           id="g622"><g
             id="g624" /><g
             id="g636"><g
               id="g634"
               opacity="0.199997"
               clip-path="url(#clipPath628)"><g
                 id="g632"
                 transform="translate(395.6924,299.5522)"><path
                   inkscape:connector-curvature="0"
                   id="path630"
                   style="fill:#ffffff;fill-opacity:1;fill-rule:nonzero;stroke:none"
                   d="m 0,0 -90.564,-78.217 -15.659,1.145 90.565,78.218 z" /></g></g></g></g><g
           transform="translate(312.2549,223.7119)"
           id="g638"><path
             inkscape:connector-curvature="0"
             id="path640"
             style="fill:#fb876b;fill-opacity:1;fill-rule:nonzero;stroke:none"
             d="m 0,0 -1.599,-1.857 c 0,0 -4.584,0.332 -5.015,2.253 -0.157,0.704 0.009,1.469 0.576,1.792 z" /></g><g
           transform="translate(313.8877,213.4062)"
           id="g642"><path
             inkscape:connector-curvature="0"
             id="path644"
             style="fill:#fba691;fill-opacity:1;fill-rule:nonzero;stroke:none"
             d="m 0,0 c -2.251,-0.286 -4.5,0.812 -5.521,2.838 -0.542,1.077 -0.778,2.455 -0.261,4.17 1.549,5.144 4.425,8.763 6.412,7.693 0.746,-0.402 0.599,-3.442 -0.419,-5.639 0,0 1.464,2.376 2.172,5.126 0.709,2.75 4.112,1.417 3.245,-2.048 C 4.762,8.674 4.384,8.17 4.384,8.17 c 0,0 1.585,2.629 1.804,4.342 C 6.408,14.225 9.1,13.75 8.51,10.408 8.236,8.859 7.911,7.084 7.911,7.084 c 0,0 0.779,2.205 1.193,3.348 0.416,1.141 1.991,1.854 2.219,-0.651 C 11.503,7.811 11.62,2.451 8.969,1.57 7.164,0.971 2.681,0.341 0,0" /></g><g
           transform="translate(359.791,216.8359)"
           id="g646"><path
             inkscape:connector-curvature="0"
             id="path648"
             style="fill:#fba691;fill-opacity:1;fill-rule:nonzero;stroke:none"
             d="m 0,0 c -0.116,1.792 3.774,1.682 5.683,2.74 1.906,1.063 6.351,4.589 5.511,5.496 -0.84,0.908 -2.122,1.577 -2.975,2.149 -0.854,0.568 -1.493,2.227 -0.56,2.421 0.937,0.189 3.936,-1.147 5.162,-2.094 0.435,-0.341 1.241,-1.452 1.767,-2.034 0.826,-0.921 1.843,-1.515 2.957,-1.632 1.029,1.063 2.141,2.266 2.859,2.841 C 21.998,9.79 27.415,6.011 26.167,2.869 24.777,0.96 22.678,-1.223 22.678,-1.223 15.165,-8.05 10.754,-7.715 8.94,-7.678 c -1.816,0.037 -2.17,1.98 -2.17,1.98 -1.666,0.4 -1.678,2.002 -1.678,2.002 -2.583,0.653 -2.215,2.395 -2.215,2.395 0,0 -2.761,-0.491 -2.877,1.301" /></g><g
           transform="translate(415.25,251.2402)"
           id="g650"><path
             inkscape:connector-curvature="0"
             id="path652"
             style="fill:#61b3ff;fill-opacity:1;fill-rule:nonzero;stroke:none"
             d="m 0,0 c 0,0 -6.58,-19.98 -28.17,-31.771 l -7.47,6.601 c 0,0 15.14,11.94 22.08,29.71 0.05,0.13 0.11,0.27 0.16,0.41 l -0.09,0.61 -7.66,49.79 c 0,0 0.69,5.72 7.47,13.8 0,0 16.69,-26.64 13.68,-69.15" /></g><g
           transform="translate(407.9199,253.7598)"
           id="g654"><path
             inkscape:connector-curvature="0"
             id="path656"
             style="fill:#009ef3;fill-opacity:1;fill-rule:nonzero;stroke:none"
             d="m 0,0 c -0.09,-0.16 -0.26,-0.24 -0.43,-0.24 -0.09,0 -0.17,0.02 -0.25,0.06 C -2.17,0.68 -4.6,1.51 -6.229,2.021 -6.18,2.15 -6.12,2.29 -6.07,2.43 L -6.16,3.04 C -4.49,2.54 -1.83,1.65 -0.18,0.69 0.061,0.55 0.14,0.24 0,0" /></g></g></g></g></svg>
