<?xml version="1.0" encoding="UTF-8" standalone="no"?>
<svg
   xmlns:dc="http://purl.org/dc/elements/1.1/"
   xmlns:cc="http://creativecommons.org/ns#"
   xmlns:rdf="http://www.w3.org/1999/02/22-rdf-syntax-ns#"
   xmlns:svg="http://www.w3.org/2000/svg"
   xmlns="http://www.w3.org/2000/svg"
   xmlns:sodipodi="http://sodipodi.sourceforge.net/DTD/sodipodi-0.dtd"
   xmlns:inkscape="http://www.inkscape.org/namespaces/inkscape"
   inkscape:version="1.0 (4035a4fb49, 2020-05-01)"
   sodipodi:docname="merchant-store-blue.svg"
   viewBox="0 0 256 256"
   height="256"
   width="256"
   xml:space="preserve"
   id="svg2"
   version="1.1"><metadata
     id="metadata8"><rdf:RDF><cc:Work
         rdf:about=""><dc:format>image/svg+xml</dc:format><dc:type
           rdf:resource="http://purl.org/dc/dcmitype/StillImage" /><dc:title></dc:title></cc:Work></rdf:RDF></metadata><defs
     id="defs6"><clipPath
       id="clipPath28"
       clipPathUnits="userSpaceOnUse"><path
         id="path26"
         d="M 0,500 H 500 V 0 H 0 Z" /></clipPath><clipPath
       id="clipPath118"
       clipPathUnits="userSpaceOnUse"><path
         id="path116"
         d="M 0,500 H 500 V 0 H 0 Z" /></clipPath><clipPath
       id="clipPath130"
       clipPathUnits="userSpaceOnUse"><path
         id="path128"
         d="M 90.62,359.676 H 442.875 V 141.257 H 90.62 Z" /></clipPath><clipPath
       id="clipPath146"
       clipPathUnits="userSpaceOnUse"><path
         id="path144"
         d="M 0,500 H 500 V 0 H 0 Z" /></clipPath><clipPath
       id="clipPath160"
       clipPathUnits="userSpaceOnUse"><path
         id="path158"
         d="M 0,500 H 500 V 0 H 0 Z" /></clipPath><clipPath
       id="clipPath168"
       clipPathUnits="userSpaceOnUse"><path
         id="path166"
         d="M 47.246,283.018 H 208.36 V 117.602 H 47.246 Z" /></clipPath><clipPath
       id="clipPath280"
       clipPathUnits="userSpaceOnUse"><path
         id="path278"
         d="M 104.866,233.936 H 150.74 V 222.294 H 104.866 Z" /></clipPath><clipPath
       id="clipPath296"
       clipPathUnits="userSpaceOnUse"><path
         id="path294"
         d="M 60.9003,219.774 H 91.0552 V 155.159 H 60.9003 Z" /></clipPath><clipPath
       id="clipPath310"
       clipPathUnits="userSpaceOnUse"><path
         id="path308"
         d="M 105.487,203.702 H 150.12 V 163.889 H 105.487 Z" /></clipPath><clipPath
       id="clipPath328"
       clipPathUnits="userSpaceOnUse"><path
         id="path326"
         d="m 109.853,204.64 h 23.179 v -81.503 h -23.179 z" /></clipPath><clipPath
       id="clipPath344"
       clipPathUnits="userSpaceOnUse"><path
         id="path342"
         d="M 116.822,204.64 H 143.38 V 123.137 H 116.822 Z" /></clipPath><clipPath
       id="clipPath360"
       clipPathUnits="userSpaceOnUse"><path
         id="path358"
         d="M 59.726,219.767 H 76.5871 V 155.159 H 59.726 Z" /></clipPath><clipPath
       id="clipPath376"
       clipPathUnits="userSpaceOnUse"><path
         id="path374"
         d="M 66.5136,219.767 H 84.3345 V 155.159 H 66.5136 Z" /></clipPath><clipPath
       id="clipPath394"
       clipPathUnits="userSpaceOnUse"><path
         id="path392"
         d="m 164.552,219.774 h 30.155 v -64.615 h -30.155 z" /></clipPath><clipPath
       id="clipPath408"
       clipPathUnits="userSpaceOnUse"><path
         id="path406"
         d="m 170.915,219.767 h 16.861 v -64.608 h -16.861 z" /></clipPath><clipPath
       id="clipPath424"
       clipPathUnits="userSpaceOnUse"><path
         id="path422"
         d="m 177.702,219.767 h 17.821 v -64.608 h -17.821 z" /></clipPath><clipPath
       id="clipPath446"
       clipPathUnits="userSpaceOnUse"><path
         id="path444"
         d="M 0,500 H 500 V 0 H 0 Z" /></clipPath><clipPath
       id="clipPath454"
       clipPathUnits="userSpaceOnUse"><path
         id="path452"
         d="M 213.964,250.483 H 375.079 V 117.602 H 213.964 Z" /></clipPath><clipPath
       id="clipPath486"
       clipPathUnits="userSpaceOnUse"><path
         id="path484"
         d="m 293.795,206.91 h 66.406 v -51.751 h -66.406 z" /></clipPath><clipPath
       id="clipPath500"
       clipPathUnits="userSpaceOnUse"><path
         id="path498"
         d="m 234.285,203.702 h 44.633 v -79.627 h -44.633 z" /></clipPath><clipPath
       id="clipPath516"
       clipPathUnits="userSpaceOnUse"><path
         id="path514"
         d="m 238.652,204.64 h 23.179 v -81.503 h -23.179 z" /></clipPath><clipPath
       id="clipPath532"
       clipPathUnits="userSpaceOnUse"><path
         id="path530"
         d="m 245.621,204.64 h 26.558 v -81.503 h -26.558 z" /></clipPath><clipPath
       id="clipPath548"
       clipPathUnits="userSpaceOnUse"><path
         id="path546"
         d="m 311.4,206.903 h 16.861 V 155.159 H 311.4 Z" /></clipPath><clipPath
       id="clipPath564"
       clipPathUnits="userSpaceOnUse"><path
         id="path562"
         d="M 323.329,206.903 H 349.58 V 155.159 H 323.329 Z" /></clipPath><clipPath
       id="clipPath694"
       clipPathUnits="userSpaceOnUse"><path
         id="path692"
         d="M 0,500 H 500 V 0 H 0 Z" /></clipPath><clipPath
       id="clipPath706"
       clipPathUnits="userSpaceOnUse"><path
         id="path704"
         d="m 404.039,148.968 h 36.239 v -31.366 h -36.239 z" /></clipPath><clipPath
       id="clipPath726"
       clipPathUnits="userSpaceOnUse"><path
         id="path724"
         d="M 0,500 H 500 V 0 H 0 Z" /></clipPath><clipPath
       id="clipPath738"
       clipPathUnits="userSpaceOnUse"><path
         id="path736"
         d="m 315.976,141.26 h 67.336 V 89.9902 h -67.336 z" /></clipPath><clipPath
       id="clipPath762"
       clipPathUnits="userSpaceOnUse"><path
         id="path760"
         d="m 317.419,138.971 h 66.396 V 88.6387 h -66.396 z" /></clipPath><clipPath
       id="clipPath782"
       clipPathUnits="userSpaceOnUse"><path
         id="path780"
         d="m 121.553,127.321 h 48.086 V 81.377 h -48.086 z" /></clipPath><clipPath
       id="clipPath806"
       clipPathUnits="userSpaceOnUse"><path
         id="path804"
         d="m 124.835,124.341 h 47.618 V 84.9189 h -47.618 z" /></clipPath></defs><sodipodi:namedview
     inkscape:current-layer="g10"
     inkscape:window-maximized="1"
     inkscape:window-y="27"
     inkscape:window-x="0"
     inkscape:cy="203.90441"
     inkscape:cx="67.927083"
     inkscape:zoom="1.428"
     showgrid="false"
     id="namedview4"
     inkscape:window-height="1088"
     inkscape:window-width="2048"
     inkscape:pageshadow="2"
     inkscape:pageopacity="0"
     guidetolerance="10"
     gridtolerance="10"
     objecttolerance="10"
     borderopacity="1"
     bordercolor="#666666"
     pagecolor="#ffffff"><sodipodi:guide
       id="guide4663"
       orientation="0,255.26132"
       position="0,228.30872" /><sodipodi:guide
       id="guide4665"
       orientation="197.4964,0"
       position="290.61626,192.59444" /><sodipodi:guide
       id="guide4667"
       orientation="0,-255.26132"
       position="255.26132,0" /><sodipodi:guide
       id="guide4669"
       orientation="-197.4964,0"
       position="0,0" /></sodipodi:namedview><g
     transform="matrix(1.3333333,0,0,-1.3333333,-265.40626,354.29772)"
     inkscape:label="3721088"
     inkscape:groupmode="layer"
     id="g10"><path
       id="path438"
       style="fill:#007cff;fill-opacity:1;fill-rule:nonzero;stroke:none;stroke-width:0.844151"
       d="M 226.18651,219.87976 H 362.09914 V 107.63227 H 226.18651 Z" /><g
       transform="matrix(0.84358049,0,0,0.8447219,45.690662,8.292127)"
       id="g440"><g
         clip-path="url(#clipPath446)"
         id="g442"><g
           id="g448"><g
             id="g450" /><g
             id="g460"><g
               id="g458"
               opacity="0.199997"
               clip-path="url(#clipPath454)"><path
                 id="path456"
                 style="fill:#000000;fill-opacity:1;fill-rule:nonzero;stroke:none"
                 d="M 213.964,250.482 H 375.078 V 117.601 H 213.964 Z" /></g></g></g><g
           transform="translate(214.9321,139.4443)"
           id="g462"><path
             id="path464"
             style="fill:#1a2e35;fill-opacity:1;fill-rule:nonzero;stroke:none"
             d="m 0,0 h 159.179 c 1.269,0 2.298,-1.028 2.298,-2.298 V -21.843 H -2.298 V -2.298 C -2.298,-1.028 -1.269,0 0,0" /></g><path
           id="path466"
           style="fill:#007cff;fill-opacity:1;fill-rule:nonzero;stroke:none"
           d="m 246.64,212.67 h -20.166 v 4.838 h 20.166 z" /><path
           id="path468"
           style="fill:#007cff;fill-opacity:1;fill-rule:nonzero;stroke:none"
           d="M 369.746,212.67 H 349.58 v 4.838 h 20.166 z" /><path
           id="path470"
           style="fill:#007cff;fill-opacity:1;fill-rule:nonzero;stroke:none"
           d="m 256.722,207.831 h -20.166 v 4.839 h 20.166 z" /><path
           id="path472"
           style="fill:#007cff;fill-opacity:1;fill-rule:nonzero;stroke:none"
           d="m 314.79,148.758 h 20.166 v 4.839 H 314.79 Z" /><path
           id="path474"
           style="fill:#007cff;fill-opacity:1;fill-rule:nonzero;stroke:none"
           d="m 304.707,143.92 h 20.166 v 4.838 h -20.166 z" /><path
           id="path476"
           style="fill:#ffffff;fill-opacity:1;fill-rule:nonzero;stroke:none"
           d="m 230.656,210.176 h 51.89 v -92.574 h -51.89 z" /><path
           id="path478"
           style="fill:#ffffff;fill-opacity:1;fill-rule:nonzero;stroke:none"
           d="m 290.53,210.176 h 72.937 V 151.893 H 290.53 Z" /><g
           id="g480"><g
             id="g482" /><g
             id="g492"><g
               id="g490"
               opacity="0.300003"
               clip-path="url(#clipPath486)"><path
                 id="path488"
                 style="fill:#007cff;fill-opacity:1;fill-rule:nonzero;stroke:none"
                 d="M 293.795,206.91 H 360.2 v -51.752 h -66.405 z" /></g></g></g><g
           id="g494"><g
             id="g496" /><g
             id="g506"><g
               id="g504"
               opacity="0.300003"
               clip-path="url(#clipPath500)"><path
                 id="path502"
                 style="fill:#007cff;fill-opacity:1;fill-rule:nonzero;stroke:none"
                 d="m 234.285,203.702 h 44.633 v -79.627 h -44.633 z" /></g></g></g><path
           id="path508"
           style="fill:#ffffff;fill-opacity:1;fill-rule:nonzero;stroke:none"
           d="m 232.955,167.338 h 47.294 v -6.897 h -47.294 z" /><g
           id="g510"><g
             id="g512" /><g
             id="g524"><g
               id="g522"
               opacity="0.399994"
               clip-path="url(#clipPath516)"><g
                 id="g520"
                 transform="translate(261.8306,204.6406)"><path
                   id="path518"
                   style="fill:#ffffff;fill-opacity:1;fill-rule:nonzero;stroke:none"
                   d="m 0,0 -19.66,-81.503 h -3.519 L -3.519,0 Z" /></g></g></g></g><g
           id="g526"><g
             id="g528" /><g
             id="g540"><g
               id="g538"
               opacity="0.399994"
               clip-path="url(#clipPath532)"><g
                 id="g536"
                 transform="translate(272.1787,204.6406)"><path
                   id="path534"
                   style="fill:#ffffff;fill-opacity:1;fill-rule:nonzero;stroke:none"
                   d="m 0,0 -19.66,-81.503 h -6.898 L -6.898,0 Z" /></g></g></g></g><g
           id="g542"><g
             id="g544" /><g
             id="g556"><g
               id="g554"
               opacity="0.399994"
               clip-path="url(#clipPath548)"><g
                 id="g552"
                 transform="translate(328.2615,206.9033)"><path
                   id="path550"
                   style="fill:#ffffff;fill-opacity:1;fill-rule:nonzero;stroke:none"
                   d="m 0,0 -12.482,-51.745 h -4.379 L -4.379,0 Z" /></g></g></g></g><g
           id="g558"><g
             id="g560" /><g
             id="g572"><g
               id="g570"
               opacity="0.399994"
               clip-path="url(#clipPath564)"><g
                 id="g568"
                 transform="translate(349.5801,206.9033)"><path
                   id="path566"
                   style="fill:#ffffff;fill-opacity:1;fill-rule:nonzero;stroke:none"
                   d="M 0,0 -12.482,-51.745 H -26.251 L -13.77,0 Z" /></g></g></g></g><g
           transform="translate(220.3267,244.0723)"
           id="g574"><path
             id="path576"
             style="fill:#007cff;fill-opacity:1;fill-rule:nonzero;stroke:none"
             d="M 0,0 H -21.272 L 3.753,21.651 h 15.711 z" /></g><g
           transform="translate(241.5984,244.0723)"
           id="g578"><path
             id="path580"
             style="fill:#ffffff;fill-opacity:1;fill-rule:nonzero;stroke:none"
             d="M 0,0 H -21.272 L -1.808,21.651 H 13.903 Z" /></g><g
           transform="translate(262.8701,244.0723)"
           id="g582"><path
             id="path584"
             style="fill:#007cff;fill-opacity:1;fill-rule:nonzero;stroke:none"
             d="M 0,0 H -21.272 L -7.369,21.651 H 8.342 Z" /></g><g
           transform="translate(284.1418,244.0723)"
           id="g586"><path
             id="path588"
             style="fill:#ffffff;fill-opacity:1;fill-rule:nonzero;stroke:none"
             d="m 0,0 h -21.272 l 8.342,21.651 H 2.781 Z" /></g><g
           transform="translate(305.4136,244.0723)"
           id="g590"><path
             id="path592"
             style="fill:#007cff;fill-opacity:1;fill-rule:nonzero;stroke:none"
             d="m 0,0 h -21.272 l 2.781,21.651 h 15.71 z" /></g><g
           transform="translate(326.6853,244.0723)"
           id="g594"><path
             id="path596"
             style="fill:#ffffff;fill-opacity:1;fill-rule:nonzero;stroke:none"
             d="m 0,0 h -21.272 l -2.78,21.651 h 15.71 z" /></g><g
           transform="translate(347.957,244.0723)"
           id="g598"><path
             id="path600"
             style="fill:#007cff;fill-opacity:1;fill-rule:nonzero;stroke:none"
             d="m 0,0 h -21.272 l -8.342,21.651 h 15.711 z" /></g><g
           transform="translate(390.5005,244.0723)"
           id="g602"><path
             id="path604"
             style="fill:#007cff;fill-opacity:1;fill-rule:nonzero;stroke:none"
             d="m 0,0 h -21.272 l -19.464,21.651 h 15.711 z" /></g><g
           transform="translate(369.2288,244.0723)"
           id="g606"><path
             id="path608"
             style="fill:#ffffff;fill-opacity:1;fill-rule:nonzero;stroke:none"
             d="m 0,0 h -21.272 l -13.903,21.651 h 15.711 z" /></g><g
           transform="translate(209.6907,224.2354)"
           id="g610"><path
             id="path612"
             style="fill:#007cff;fill-opacity:1;fill-rule:nonzero;stroke:none"
             d="m 0,0 v 0 c -5.874,0 -10.636,4.762 -10.636,10.636 v 9.201 H 10.636 V 10.636 C 10.636,4.762 5.874,0 0,0" /></g><g
           transform="translate(230.9624,224.2354)"
           id="g614"><path
             id="path616"
             style="fill:#ffffff;fill-opacity:1;fill-rule:nonzero;stroke:none"
             d="m 0,0 v 0 c -5.874,0 -10.636,4.762 -10.636,10.636 v 9.201 H 10.636 V 10.636 C 10.636,4.762 5.874,0 0,0" /></g><g
           transform="translate(252.2341,224.2354)"
           id="g618"><path
             id="path620"
             style="fill:#007cff;fill-opacity:1;fill-rule:nonzero;stroke:none"
             d="m 0,0 v 0 c -5.874,0 -10.636,4.762 -10.636,10.636 v 9.201 H 10.636 V 10.636 C 10.636,4.762 5.874,0 0,0" /></g><g
           transform="translate(273.5061,224.2354)"
           id="g622"><path
             id="path624"
             style="fill:#ffffff;fill-opacity:1;fill-rule:nonzero;stroke:none"
             d="m 0,0 v 0 c -5.874,0 -10.636,4.762 -10.636,10.636 v 9.201 H 10.636 V 10.636 C 10.636,4.762 5.874,0 0,0" /></g><g
           transform="translate(294.7776,224.2354)"
           id="g626"><path
             id="path628"
             style="fill:#007cff;fill-opacity:1;fill-rule:nonzero;stroke:none"
             d="m 0,0 v 0 c -5.874,0 -10.636,4.762 -10.636,10.636 v 9.201 H 10.636 V 10.636 C 10.636,4.762 5.874,0 0,0" /></g><g
           transform="translate(316.0496,224.2354)"
           id="g630"><path
             id="path632"
             style="fill:#ffffff;fill-opacity:1;fill-rule:nonzero;stroke:none"
             d="m 0,0 v 0 c -5.874,0 -10.636,4.762 -10.636,10.636 v 9.201 H 10.636 V 10.636 C 10.636,4.762 5.874,0 0,0" /></g><g
           transform="translate(337.3213,224.2354)"
           id="g634"><path
             id="path636"
             style="fill:#007cff;fill-opacity:1;fill-rule:nonzero;stroke:none"
             d="m 0,0 v 0 c -5.874,0 -10.636,4.762 -10.636,10.636 v 9.201 H 10.636 V 10.636 C 10.636,4.762 5.874,0 0,0" /></g><g
           transform="translate(379.8647,224.2354)"
           id="g638"><path
             id="path640"
             style="fill:#007cff;fill-opacity:1;fill-rule:nonzero;stroke:none"
             d="m 0,0 v 0 c -5.874,0 -10.636,4.762 -10.636,10.636 v 9.201 H 10.636 V 10.636 C 10.636,4.762 5.874,0 0,0" /></g><g
           transform="translate(358.593,224.2354)"
           id="g642"><path
             id="path644"
             style="fill:#ffffff;fill-opacity:1;fill-rule:nonzero;stroke:none"
             d="m 0,0 v 0 c -5.874,0 -10.636,4.762 -10.636,10.636 v 9.201 H 10.636 V 10.636 C 10.636,4.762 5.874,0 0,0" /></g><g
           transform="translate(280.551,167.5068)"
           id="g646"><path
             id="path648"
             style="fill:#007cff;fill-opacity:1;fill-rule:nonzero;stroke:none"
             d="m 0,0 c 0,-1.67 -1.354,-3.024 -3.024,-3.024 -1.67,0 -3.024,1.354 -3.024,3.024 0,1.67 1.354,3.023 3.024,3.023 C -1.354,3.023 0,1.67 0,0" /></g><g
           transform="translate(272.3501,177.0449)"
           id="g650"><path
             id="path652"
             style="fill:#007cff;fill-opacity:1;fill-rule:nonzero;stroke:none"
             d="m 0,0 -32.078,2.825 c -0.873,0.077 -1.525,0.854 -1.448,1.727 l 0.866,9.836 c 0.077,0.873 0.854,1.524 1.727,1.447 L 1.146,13.01 C 2.019,12.933 2.67,12.155 2.593,11.282 L 1.727,1.447 C 1.65,0.574 0.873,-0.077 0,0" /></g><g
           transform="translate(246.1855,185.5752)"
           id="g654"><path
             id="path656"
             style="fill:#ffffff;fill-opacity:1;fill-rule:nonzero;stroke:none"
             d="M 0,0 1.19,-0.478 C 1.078,-0.813 0.923,-1.088 0.726,-1.302 0.529,-1.517 0.295,-1.671 0.022,-1.765 c -0.271,-0.093 -0.61,-0.123 -1.014,-0.088 -0.491,0.044 -0.885,0.151 -1.184,0.321 -0.298,0.17 -0.545,0.444 -0.74,0.823 -0.194,0.379 -0.266,0.85 -0.217,1.409 0.066,0.747 0.315,1.303 0.748,1.67 0.433,0.365 1.012,0.518 1.739,0.453 C -0.077,2.773 0.361,2.618 0.665,2.36 0.97,2.102 1.181,1.727 1.297,1.236 L 0.041,1.071 C 0.01,1.213 -0.026,1.317 -0.068,1.385 -0.136,1.498 -0.224,1.589 -0.333,1.656 -0.44,1.724 -0.564,1.764 -0.704,1.775 -1.02,1.804 -1.274,1.698 -1.464,1.458 -1.608,1.281 -1.698,0.99 -1.734,0.586 c -0.044,-0.5 0.002,-0.85 0.138,-1.049 0.136,-0.199 0.341,-0.31 0.616,-0.335 0.267,-0.023 0.475,0.034 0.625,0.172 C -0.205,-0.489 -0.087,-0.28 0,0" /></g><g
           transform="translate(248.3206,188.0762)"
           id="g658"><path
             id="path660"
             style="fill:#ffffff;fill-opacity:1;fill-rule:nonzero;stroke:none"
             d="m 0,0 1.396,-0.123 -0.3,-3.403 2.177,-0.193 -0.098,-1.112 -3.573,0.315 z" /></g><g
           transform="translate(253.4409,185.3398)"
           id="g662"><path
             id="path664"
             style="fill:#ffffff;fill-opacity:1;fill-rule:nonzero;stroke:none"
             d="m 0,0 c -0.04,-0.455 0.015,-0.79 0.167,-1.005 0.153,-0.214 0.374,-0.334 0.665,-0.359 0.3,-0.027 0.541,0.051 0.722,0.231 0.182,0.181 0.295,0.524 0.34,1.029 C 1.931,0.32 1.872,0.639 1.719,0.85 1.564,1.062 1.34,1.18 1.046,1.206 0.765,1.23 0.53,1.151 0.342,0.967 0.155,0.782 0.041,0.46 0,0 M -1.395,0.13 C -1.33,0.867 -1.074,1.422 -0.627,1.797 -0.18,2.171 0.41,2.327 1.142,2.263 1.894,2.196 2.455,1.942 2.826,1.504 3.198,1.064 3.351,0.481 3.287,-0.246 3.24,-0.773 3.114,-1.198 2.906,-1.521 2.699,-1.843 2.419,-2.083 2.067,-2.241 1.714,-2.399 1.288,-2.457 0.787,-2.412 c -0.51,0.045 -0.924,0.162 -1.243,0.354 -0.32,0.192 -0.568,0.472 -0.744,0.842 -0.176,0.369 -0.242,0.818 -0.195,1.346" /></g><g
           transform="translate(257.166,184.252)"
           id="g666"><path
             id="path668"
             style="fill:#ffffff;fill-opacity:1;fill-rule:nonzero;stroke:none"
             d="m 0,0 1.335,-0.034 c 0.01,-0.219 0.054,-0.388 0.132,-0.509 0.127,-0.195 0.325,-0.304 0.592,-0.327 0.2,-0.018 0.357,0.016 0.473,0.099 0.116,0.084 0.179,0.187 0.19,0.31 0.011,0.117 -0.031,0.228 -0.126,0.328 C 2.501,-0.031 2.271,0.077 1.904,0.192 1.304,0.384 0.884,0.604 0.643,0.855 0.401,1.106 0.295,1.409 0.326,1.762 0.346,1.994 0.433,2.207 0.586,2.401 0.739,2.597 0.955,2.741 1.235,2.835 1.515,2.93 1.891,2.956 2.361,2.915 2.938,2.864 3.369,2.717 3.653,2.477 3.937,2.234 4.087,1.878 4.103,1.404 L 2.781,1.443 C 2.764,1.649 2.704,1.804 2.6,1.906 2.496,2.009 2.346,2.068 2.149,2.085 1.986,2.1 1.862,2.076 1.773,2.016 1.685,1.953 1.636,1.873 1.628,1.774 1.621,1.703 1.649,1.635 1.712,1.571 1.773,1.506 1.924,1.437 2.166,1.364 2.764,1.18 3.19,1.007 3.441,0.85 3.693,0.692 3.871,0.509 3.974,0.299 4.076,0.089 4.117,-0.139 4.095,-0.386 4.07,-0.675 3.966,-0.936 3.784,-1.165 3.602,-1.396 3.362,-1.562 3.063,-1.662 2.765,-1.764 2.396,-1.794 1.959,-1.756 1.192,-1.688 0.672,-1.494 0.403,-1.172 0.134,-0.851 -0.001,-0.46 0,0" /></g><g
           transform="translate(262.2283,186.8516)"
           id="g670"><path
             id="path672"
             style="fill:#ffffff;fill-opacity:1;fill-rule:nonzero;stroke:none"
             d="M 0,0 3.74,-0.329 3.655,-1.294 1.314,-1.088 1.25,-1.806 3.422,-1.997 3.341,-2.918 1.169,-2.727 1.091,-3.617 3.5,-3.829 3.409,-4.852 -0.398,-4.517 Z" /></g><g
           transform="translate(268.1116,185.3027)"
           id="g674"><path
             id="path676"
             style="fill:#ffffff;fill-opacity:1;fill-rule:nonzero;stroke:none"
             d="m 0,0 -0.218,-2.468 0.343,-0.03 c 0.291,-0.025 0.501,-0.011 0.63,0.042 0.129,0.054 0.235,0.159 0.319,0.313 0.085,0.156 0.143,0.414 0.175,0.776 0.042,0.478 -0.008,0.812 -0.148,1.003 -0.141,0.19 -0.392,0.302 -0.754,0.334 z M -1.306,1.146 0.768,0.963 C 1.176,0.927 1.501,0.842 1.743,0.709 1.985,0.576 2.178,0.398 2.325,0.177 2.471,-0.046 2.569,-0.297 2.618,-0.579 2.668,-0.86 2.679,-1.155 2.652,-1.464 2.61,-1.945 2.522,-2.315 2.389,-2.571 2.255,-2.828 2.083,-3.038 1.872,-3.2 1.661,-3.362 1.441,-3.463 1.212,-3.503 0.899,-3.559 0.618,-3.575 0.37,-3.554 l -2.074,0.183 z" /></g><g
           transform="translate(363.4946,164.1787)"
           id="g678"><path
             id="path680"
             style="fill:#007cff;fill-opacity:1;fill-rule:nonzero;stroke:none"
             d="m 0,0 -73.574,33.7 c -0.145,0.067 -0.238,0.211 -0.238,0.37 v 3.579 c 0,0.297 0.308,0.495 0.578,0.371 L 0.339,4.32 C 0.484,4.254 0.577,4.109 0.577,3.949 V 0.37 C 0.577,0.073 0.27,-0.124 0,0" /></g><g
           transform="translate(363.5168,197.0469)"
           id="g682"><path
             id="path684"
             style="fill:#007cff;fill-opacity:1;fill-rule:nonzero;stroke:none"
             d="m 0,0 -73.574,-28.557 c -0.156,-0.06 -0.26,-0.211 -0.26,-0.379 v -3.601 c 0,-0.287 0.288,-0.484 0.555,-0.38 L 0.295,-4.361 c 0.156,0.06 0.26,0.212 0.26,0.38 V -0.38 C 0.555,-0.094 0.267,0.104 0,0" /></g></g></g></g></svg>
