<?xml version="1.0" encoding="UTF-8" standalone="no"?>
<svg
   xmlns:dc="http://purl.org/dc/elements/1.1/"
   xmlns:cc="http://creativecommons.org/ns#"
   xmlns:rdf="http://www.w3.org/1999/02/22-rdf-syntax-ns#"
   xmlns:svg="http://www.w3.org/2000/svg"
   xmlns="http://www.w3.org/2000/svg"
   xmlns:sodipodi="http://sodipodi.sourceforge.net/DTD/sodipodi-0.dtd"
   xmlns:inkscape="http://www.inkscape.org/namespaces/inkscape"
   sodipodi:docname="icon-foursquare.svg"
   width="256"
   height="256"
   viewBox="0 0 67.733334 67.733335"
   version="1.1"
   id="svg3617"
   inkscape:export-filename="/home/aboozar/bitmap.png"
   inkscape:export-xdpi="313.177"
   inkscape:export-ydpi="313.177"
   inkscape:version="1.0 (4035a4fb49, 2020-05-01)">
  <defs
     id="defs3611" />
  <sodipodi:namedview
     units="px"
     id="base"
     pagecolor="#ffffff"
     bordercolor="#666666"
     borderopacity="1.0"
     inkscape:pageopacity="0.0"
     inkscape:pageshadow="2"
     inkscape:zoom="2.6998547"
     inkscape:cx="194.64135"
     inkscape:cy="109.44351"
     inkscape:document-units="mm"
     inkscape:current-layer="layer1"
     inkscape:document-rotation="0"
     showgrid="false"
     inkscape:window-width="2048"
     inkscape:window-height="1088"
     inkscape:window-x="0"
     inkscape:window-y="0"
     inkscape:window-maximized="1">
    <inkscape:grid
       type="xygrid"
       id="grid4208"
       originx="-86.084416"
       originy="0.01225" />
  </sodipodi:namedview>
  <metadata
     id="metadata3614">
    <rdf:RDF>
      <cc:Work
         rdf:about="">
        <dc:format>image/svg+xml</dc:format>
        <dc:type
           rdf:resource="http://purl.org/dc/dcmitype/StillImage" />
        <dc:title></dc:title>
      </cc:Work>
    </rdf:RDF>
  </metadata>
  <g
     inkscape:label="Layer 1"
     inkscape:groupmode="layer"
     id="layer1"
     transform="translate(-129.55775,-203.3303)">
    <path
       sodipodi:nodetypes="sssscccccccccccccs"
       style="fill:#002e5b;fill-opacity:1;stroke-width:0.431891"
       d="m 130.70774,256.83129 c 0.63277,-1.00956 2.23861,-3.45226 3.56853,-5.42828 1.32992,-1.97599 3.48703,-5.21507 4.79348,-7.19794 2.54636,-3.86472 4.22101,-6.38783 12.31417,-18.55338 l 5.18799,-7.9796 8.64044,-0.0271 8.64047,-0.0271 -0.0217,9.61815 0.0108,9.61821 h -5.48093 -5.57696 l -0.0718,-4.19053 -0.10407,-4.19053 -10.03698,15.09578 -10.03692,15.09573 h -6.48832 -6.48824 z"
       id="path3563"
       inkscape:connector-curvature="0"
       inkscape:export-xdpi="313.17706"
       inkscape:export-ydpi="313.17706" />
    <path
       inkscape:connector-curvature="0"
       id="path3473"
       d="m 162.74092,258.67483 c -0.0163,-1.55161 -0.029,-2.67352 -0.029,-5.24691 v -4.67879 h -4.50073 -4.52333 l 2.34644,-3.99499 2.34652,-4.44769 13.18079,-0.035 13.18083,0.0556 c 2.62544,0.0108 2.45731,-4.68358 2.46153,-7.60409 0.005,-2.9205 -0.42454,-6.95123 -2.38294,-6.95107 l -4.38658,3.8e-4 -3.87943,-0.0333 v -4.04304 -4.04307 h 4.67147 c 7.63682,0 12.18379,0.28725 13.97847,2.86384 1.43767,2.06401 2.12467,7.93095 1.95553,12.19815 -0.45631,11.5127 -1.09769,14.2346 -7.32361,15.56981 -1.1907,0.25556 -5.52365,0.46432 -9.186,0.46432 h -6.79473 l 0.0136,4.85877 0.0217,5.07064 -5.35009,-0.008 c -5.77994,-0.008 -0.0217,0.0217 -5.80049,0.003 z"
       style="fill:#ffcc00;fill-opacity:1;stroke-width:0.431891"
       sodipodi:nodetypes="csccccccszsccccssssscccscc"
       inkscape:export-xdpi="313.17706"
       inkscape:export-ydpi="313.17706" />
  </g>
</svg>
