<?xml version="1.0" encoding="UTF-8" standalone="no"?>
<svg
   xmlns:dc="http://purl.org/dc/elements/1.1/"
   xmlns:cc="http://creativecommons.org/ns#"
   xmlns:rdf="http://www.w3.org/1999/02/22-rdf-syntax-ns#"
   xmlns:svg="http://www.w3.org/2000/svg"
   xmlns="http://www.w3.org/2000/svg"
   xmlns:sodipodi="http://sodipodi.sourceforge.net/DTD/sodipodi-0.dtd"
   xmlns:inkscape="http://www.inkscape.org/namespaces/inkscape"
   inkscape:version="1.0rc1 (09960d6f05, 2020-04-09)"
   inkscape:export-ydpi="313.388"
   inkscape:export-xdpi="313.388"
   inkscape:export-filename="/home/aboozar/white.png"
   id="svg3617"
   version="1.1"
   viewBox="0 0 111.11286 15.136327"
   height="15.136327mm"
   width="111.11286mm">
  <defs
     id="defs3611" />
  <sodipodi:namedview
     inkscape:window-maximized="1"
     inkscape:window-y="0"
     inkscape:window-x="0"
     inkscape:window-height="1043"
     inkscape:window-width="1920"
     showgrid="false"
     inkscape:document-rotation="0"
     inkscape:current-layer="layer1"
     inkscape:document-units="mm"
     inkscape:cy="65.965569"
     inkscape:cx="-27.18353"
     inkscape:zoom="0.98994949"
     inkscape:pageshadow="2"
     inkscape:pageopacity="0.0"
     borderopacity="1.0"
     bordercolor="#666666"
     pagecolor="#ffffff"
     id="base">
    <inkscape:grid
       id="grid4208"
       type="xygrid" />
  </sodipodi:namedview>
  <metadata
     id="metadata3614">
    <rdf:RDF>
      <cc:Work
         rdf:about="">
        <dc:format>image/svg+xml</dc:format>
        <dc:type
           rdf:resource="http://purl.org/dc/dcmitype/StillImage" />
        <dc:title></dc:title>
      </cc:Work>
    </rdf:RDF>
  </metadata>
  <g
     transform="translate(-43.473334,-203.34255)"
     id="layer1"
     inkscape:groupmode="layer"
     inkscape:label="Layer 1">
    <path
       inkscape:export-ydpi="313.17706"
       inkscape:export-xdpi="313.17706"
       inkscape:connector-curvature="0"
       id="path3563"
       d="m 129.98208,217.79944 c 0.23348,-0.37251 0.82601,-1.27383 1.31673,-2.00295 0.49072,-0.72911 1.28666,-1.92428 1.76872,-2.65593 0.93957,-1.42602 1.55749,-2.35701 4.54374,-6.84591 l 1.91429,-2.94435 3.18819,-0.01 3.1882,-0.01 -0.008,3.54895 0.004,3.54897 h -2.02238 -2.05781 l -0.0265,-1.54624 -0.0384,-1.54624 -3.70349,5.57011 -3.70347,5.57009 h -2.39409 -2.39406 z"
       style="fill:#002e5b;fill-opacity:1;stroke-width:0.159361"
       sodipodi:nodetypes="sssscccccccccccccs" />
    <path
       inkscape:export-ydpi="313.17706"
       inkscape:export-xdpi="313.17706"
       sodipodi:nodetypes="csccccccszsccccssssscccscc"
       style="fill:#ffcc00;fill-opacity:1;stroke-width:0.159361"
       d="m 141.80183,218.47968 c -0.006,-0.57252 -0.0107,-0.98649 -0.0107,-1.93603 v -1.7264 h -1.6607 -1.66904 l 0.8658,-1.47409 0.86583,-1.64113 4.86351,-0.0129 4.86352,0.0205 c 0.96875,0.004 0.90671,-1.72817 0.90827,-2.80579 0.002,-1.07762 -0.15665,-2.5649 -0.87927,-2.56484 l -1.61858,1.4e-4 -1.43145,-0.0123 v -1.49182 -1.49183 h 1.7237 c 2.81787,0 4.49563,0.10599 5.15784,1.05671 0.53048,0.76159 0.78397,2.9264 0.72156,4.50093 -0.16837,4.24801 -0.40503,5.25235 -2.7023,5.74502 -0.43935,0.0943 -2.03814,0.17133 -3.38949,0.17133 h -2.50715 l 0.005,1.79281 0.008,1.87099 -1.9741,-0.003 c -2.13271,-0.003 -0.008,0.008 -2.14029,0.001 z"
       id="path3473"
       inkscape:connector-curvature="0" />
    <g
       inkscape:export-ydpi="313.17706"
       inkscape:export-xdpi="313.17706"
       style="fill:#002e5b;fill-opacity:1"
       id="g26-3-2-8-1-5-4"
       transform="matrix(0.26458333,0,0,0.26458333,33.233959,195.85484)">
      <path
         inkscape:connector-curvature="0"
         style="fill:#002e5b;fill-opacity:1"
         id="path8-6-7-7-0-4-9"
         d="m 177.1,51.7 c 0,-4.2 2.1,-6.3 6.3,-6.3 4.2,0 6.3,2.1 6.3,6.3 0,4.2 -2.1,6.3 -6.3,6.3 -4.2,0.1 -6.3,-2 -6.3,-6.3 z"
         class="st0" />
      <path
         inkscape:connector-curvature="0"
         style="fill:#002e5b;fill-opacity:1"
         id="path10-7-0-9-6-7-2"
         d="m 104,79.2 c 0,-4.2 2.1,-6.3 6.3,-6.3 4.2,0 6.3,2.1 6.3,6.3 0,4.2 -2.1,6.3 -6.3,6.3 -4.2,0 -6.3,-2.1 -6.3,-6.3 z"
         class="st0" />
      <path
         inkscape:connector-curvature="0"
         style="fill:#002e5b;fill-opacity:1"
         id="path12-5-9-2-3-4-0"
         d="m 118.2,79.2 c 0,-4.2 2.1,-6.3 6.3,-6.3 4.2,0 6.3,2.1 6.3,6.3 0,4.2 -2.1,6.3 -6.3,6.3 -4.2,0 -6.3,-2.1 -6.3,-6.3 z"
         class="st0" />
      <path
         inkscape:connector-curvature="0"
         style="fill:#002e5b;fill-opacity:1"
         id="path14-3-3-0-2-4-6"
         d="m 132.4,79.2 c 0,-4.2 2.1,-6.3 6.3,-6.3 4.2,0 6.3,2.1 6.3,6.3 0,4.2 -2.1,6.3 -6.3,6.3 -4.2,0 -6.3,-2.1 -6.3,-6.3 z"
         class="st0" />
      <path
         inkscape:connector-curvature="0"
         style="fill:#002e5b;fill-opacity:1"
         id="path16-5-6-2-0-3-8"
         d="m 216,45.3 v 11.8 c 0,9.5 -2.5,16.6 -7.5,21.3 -4.9,4.6 -12.1,7 -21.7,7.1 -0.2,0 -0.5,0 -0.8,0 h -5.1 c -0.3,0 -0.5,0 -0.8,0 -9.6,-0.1 -16.9,-2.5 -21.7,-7.1 -5,-4.7 -7.5,-11.8 -7.5,-21.3 V 45.3 h 12.7 v 11.8 c 0,2.3 0.2,4.5 0.7,6.4 0.5,1.9 1.3,3.6 2.6,5 1.3,1.4 3,2.4 5.3,3.2 2.3,0.7 5.2,1.1 8.8,1.1 h 5.1 c 3.6,0 6.5,-0.4 8.8,-1.1 2.3,-0.7 4,-1.8 5.3,-3.2 1.3,-1.4 2.1,-3 2.6,-5 0.5,-1.9 0.7,-4.1 0.7,-6.4 V 45.3 Z"
         class="st0" />
      <path
         inkscape:connector-curvature="0"
         style="fill:#002e5b;fill-opacity:1"
         id="path18-6-0-3-6-0-9"
         d="m 346.9,38.3 h -15.1 c -2,0 -3.7,0.1 -5.1,0.2 -1.4,0.1 -2.5,0.4 -3.5,0.9 -1,0.5 -1.8,1.2 -2.4,2.1 -0.6,0.9 -1.2,2.2 -1.7,3.8 l -9.5,-2.8 c 0.9,-3.1 2.1,-5.6 3.6,-7.5 1.5,-1.9 3.4,-3.4 5.5,-4.5 1.8,-0.9 3.8,-1.5 6,-1.8 2.1,-0.3 4.5,-0.4 7.1,-0.4 h 15.1 z"
         class="st0" />
      <rect
         style="fill:#002e5b;fill-opacity:1"
         id="rect20-2-6-7-1-7-2"
         height="40.5"
         width="12.7"
         class="st0"
         y="45"
         x="326.60001" />
      <path
         inkscape:connector-curvature="0"
         style="fill:#002e5b;fill-opacity:1"
         id="path22-9-2-5-5-8-6"
         d="m 145.1,45.4 v 12.7 h -41.3 c -0.2,9 -2.7,15.8 -7.5,20.3 -4.9,4.6 -12.1,7 -21.7,7.1 -0.2,0 -0.5,0 -0.8,0 h -5.1 c -0.3,0 -0.5,0 -0.8,0 C 58.3,85.4 51,83 46.2,78.4 41.2,73.7 38.7,66.6 38.7,57.1 V 45.3 h 12.7 v 11.8 c 0,2.3 0.2,4.5 0.7,6.4 0.5,1.9 1.3,3.6 2.6,5 1.3,1.4 3,2.4 5.3,3.2 2.3,0.7 5.2,1.1 8.8,1.1 h 5.1 c 3.6,0 6.5,-0.4 8.8,-1.1 2.3,-0.7 4,-1.8 5.3,-3.2 1.3,-1.4 2.1,-3 2.6,-5 0.4,-1.7 0.6,-3.5 0.7,-5.4 h -19 V 45.4 Z"
         class="st0" />
      <path
         inkscape:connector-curvature="0"
         style="fill:#002e5b;fill-opacity:1"
         id="path24-1-6-9-5-6-6"
         d="m 320.5,72.8 v 12.7 h -73.6 c -3.6,0 -6.7,0.1 -9.4,-0.4 -2.7,-0.5 -4.9,-1.1 -6.8,-2 -1.8,-0.9 -3.3,-2 -4.4,-3.4 -1.1,-1.4 -1.9,-3 -2.5,-4.9 -0.6,-1.9 -1,-4 -1.1,-6.4 -0.2,-2.4 -0.3,-5 -0.3,-7.8 V 45.3 h 12.7 v 15.3 c 0,2.7 0.1,4.9 0.3,6.5 0.2,1.6 0.7,2.9 1.5,3.8 0.8,0.9 2,1.5 3.6,1.8 1.6,0.3 3.8,0.1 6.7,0.1 v 0 z"
         class="st0" />
    </g>
  </g>
</svg>
